%TF.GenerationSoftware,KiCad,Pcbnew,10.0.0*%
%TF.CreationDate,2026-04-06T21:49:53+05:30*%
%TF.ProjectId,Halfwave1,48616c66-7761-4766-9531-2e6b69636164,rev?*%
%TF.SameCoordinates,Original*%
%TF.FileFunction,Legend,Top*%
%TF.FilePolarity,Positive*%
%FSLAX46Y46*%
G04 Gerber Fmt 4.6, Leading zero omitted, Abs format (unit mm)*
G04 Created by KiCad (PCBNEW 10.0.0) date 2026-04-06 21:49:53*
%MOMM*%
%LPD*%
G01*
G04 APERTURE LIST*
%ADD10C,0.150000*%
%ADD11C,0.120000*%
G04 APERTURE END LIST*
D10*
X205074819Y-147333333D02*
X205789104Y-147333333D01*
X205789104Y-147333333D02*
X205931961Y-147380952D01*
X205931961Y-147380952D02*
X206027200Y-147476190D01*
X206027200Y-147476190D02*
X206074819Y-147619047D01*
X206074819Y-147619047D02*
X206074819Y-147714285D01*
X206074819Y-146333333D02*
X206074819Y-146904761D01*
X206074819Y-146619047D02*
X205074819Y-146619047D01*
X205074819Y-146619047D02*
X205217676Y-146714285D01*
X205217676Y-146714285D02*
X205312914Y-146809523D01*
X205312914Y-146809523D02*
X205360533Y-146904761D01*
X212681905Y-142424819D02*
X212681905Y-141424819D01*
X212681905Y-141424819D02*
X212920000Y-141424819D01*
X212920000Y-141424819D02*
X213062857Y-141472438D01*
X213062857Y-141472438D02*
X213158095Y-141567676D01*
X213158095Y-141567676D02*
X213205714Y-141662914D01*
X213205714Y-141662914D02*
X213253333Y-141853390D01*
X213253333Y-141853390D02*
X213253333Y-141996247D01*
X213253333Y-141996247D02*
X213205714Y-142186723D01*
X213205714Y-142186723D02*
X213158095Y-142281961D01*
X213158095Y-142281961D02*
X213062857Y-142377200D01*
X213062857Y-142377200D02*
X212920000Y-142424819D01*
X212920000Y-142424819D02*
X212681905Y-142424819D01*
X214205714Y-142424819D02*
X213634286Y-142424819D01*
X213920000Y-142424819D02*
X213920000Y-141424819D01*
X213920000Y-141424819D02*
X213824762Y-141567676D01*
X213824762Y-141567676D02*
X213729524Y-141662914D01*
X213729524Y-141662914D02*
X213634286Y-141710533D01*
X218238095Y-142054819D02*
X218238095Y-141054819D01*
X218809523Y-142054819D02*
X218380952Y-141483390D01*
X218809523Y-141054819D02*
X218238095Y-141626247D01*
X244834819Y-148333333D02*
X245549104Y-148333333D01*
X245549104Y-148333333D02*
X245691961Y-148380952D01*
X245691961Y-148380952D02*
X245787200Y-148476190D01*
X245787200Y-148476190D02*
X245834819Y-148619047D01*
X245834819Y-148619047D02*
X245834819Y-148714285D01*
X244930057Y-147904761D02*
X244882438Y-147857142D01*
X244882438Y-147857142D02*
X244834819Y-147761904D01*
X244834819Y-147761904D02*
X244834819Y-147523809D01*
X244834819Y-147523809D02*
X244882438Y-147428571D01*
X244882438Y-147428571D02*
X244930057Y-147380952D01*
X244930057Y-147380952D02*
X245025295Y-147333333D01*
X245025295Y-147333333D02*
X245120533Y-147333333D01*
X245120533Y-147333333D02*
X245263390Y-147380952D01*
X245263390Y-147380952D02*
X245834819Y-147952380D01*
X245834819Y-147952380D02*
X245834819Y-147333333D01*
X227824819Y-148246666D02*
X227348628Y-148579999D01*
X227824819Y-148818094D02*
X226824819Y-148818094D01*
X226824819Y-148818094D02*
X226824819Y-148437142D01*
X226824819Y-148437142D02*
X226872438Y-148341904D01*
X226872438Y-148341904D02*
X226920057Y-148294285D01*
X226920057Y-148294285D02*
X227015295Y-148246666D01*
X227015295Y-148246666D02*
X227158152Y-148246666D01*
X227158152Y-148246666D02*
X227253390Y-148294285D01*
X227253390Y-148294285D02*
X227301009Y-148341904D01*
X227301009Y-148341904D02*
X227348628Y-148437142D01*
X227348628Y-148437142D02*
X227348628Y-148818094D01*
X227824819Y-147294285D02*
X227824819Y-147865713D01*
X227824819Y-147579999D02*
X226824819Y-147579999D01*
X226824819Y-147579999D02*
X226967676Y-147675237D01*
X226967676Y-147675237D02*
X227062914Y-147770475D01*
X227062914Y-147770475D02*
X227110533Y-147865713D01*
X240609580Y-147416666D02*
X240657200Y-147464285D01*
X240657200Y-147464285D02*
X240704819Y-147607142D01*
X240704819Y-147607142D02*
X240704819Y-147702380D01*
X240704819Y-147702380D02*
X240657200Y-147845237D01*
X240657200Y-147845237D02*
X240561961Y-147940475D01*
X240561961Y-147940475D02*
X240466723Y-147988094D01*
X240466723Y-147988094D02*
X240276247Y-148035713D01*
X240276247Y-148035713D02*
X240133390Y-148035713D01*
X240133390Y-148035713D02*
X239942914Y-147988094D01*
X239942914Y-147988094D02*
X239847676Y-147940475D01*
X239847676Y-147940475D02*
X239752438Y-147845237D01*
X239752438Y-147845237D02*
X239704819Y-147702380D01*
X239704819Y-147702380D02*
X239704819Y-147607142D01*
X239704819Y-147607142D02*
X239752438Y-147464285D01*
X239752438Y-147464285D02*
X239800057Y-147416666D01*
X240704819Y-146464285D02*
X240704819Y-147035713D01*
X240704819Y-146749999D02*
X239704819Y-146749999D01*
X239704819Y-146749999D02*
X239847676Y-146845237D01*
X239847676Y-146845237D02*
X239942914Y-146940475D01*
X239942914Y-146940475D02*
X239990533Y-147035713D01*
%TO.C,J1*%
D11*
X195380000Y-141880000D02*
X204620000Y-141880000D01*
X195380000Y-144200000D02*
X195380000Y-141880000D01*
X195380000Y-152120000D02*
X195380000Y-144800000D01*
X195900000Y-141880000D02*
X195900000Y-152120000D01*
X197000000Y-141880000D02*
X197000000Y-152120000D01*
X204620000Y-141880000D02*
X204620000Y-152120000D01*
X204620000Y-152120000D02*
X195380000Y-152120000D01*
X195380000Y-144500000D02*
X194770000Y-144940000D01*
X194770000Y-144060000D01*
X195380000Y-144500000D01*
G36*
X195380000Y-144500000D02*
G01*
X194770000Y-144940000D01*
X194770000Y-144060000D01*
X195380000Y-144500000D01*
G37*
%TO.C,D1*%
X209680000Y-139500000D02*
X210700000Y-139500000D01*
X215120000Y-140970000D02*
X215120000Y-138030000D01*
X215240000Y-140970000D02*
X215240000Y-138030000D01*
X215360000Y-140970000D02*
X215360000Y-138030000D01*
X217160000Y-139500000D02*
X216140000Y-139500000D01*
X210700000Y-138030000D02*
X216140000Y-138030000D01*
X216140000Y-140970000D01*
X210700000Y-140970000D01*
X210700000Y-138030000D01*
%TO.C,J2*%
X246380000Y-142880000D02*
X255620000Y-142880000D01*
X246380000Y-153120000D02*
X246380000Y-142880000D01*
X254000000Y-153120000D02*
X254000000Y-142880000D01*
X255100000Y-153120000D02*
X255100000Y-142880000D01*
X255620000Y-142880000D02*
X255620000Y-150200000D01*
X255620000Y-150800000D02*
X255620000Y-153120000D01*
X255620000Y-153120000D02*
X246380000Y-153120000D01*
X256230000Y-150940000D02*
X255620000Y-150500000D01*
X256230000Y-150060000D01*
X256230000Y-150940000D01*
G36*
X256230000Y-150940000D02*
G01*
X255620000Y-150500000D01*
X256230000Y-150060000D01*
X256230000Y-150940000D01*
G37*
%TO.C,R1*%
X225000000Y-144040000D02*
X225000000Y-144810000D01*
X225000000Y-152120000D02*
X225000000Y-151350000D01*
X223630000Y-144810000D02*
X226370000Y-144810000D01*
X226370000Y-151350000D01*
X223630000Y-151350000D01*
X223630000Y-144810000D01*
%TO.C,C1*%
X235460000Y-147490000D02*
X233931000Y-147490000D01*
X235460000Y-147530000D02*
X233935000Y-147530000D01*
X235460000Y-147570000D02*
X233940000Y-147570000D01*
X235460000Y-147610000D02*
X233945000Y-147610000D01*
X235460000Y-147650000D02*
X233951000Y-147650000D01*
X235460000Y-147690000D02*
X233957000Y-147690000D01*
X235460000Y-147730000D02*
X233964000Y-147730000D01*
X235460000Y-147770000D02*
X233972000Y-147770000D01*
X235460000Y-147810000D02*
X233981000Y-147810000D01*
X235460000Y-147850000D02*
X233990000Y-147850000D01*
X235460000Y-147890000D02*
X233999000Y-147890000D01*
X235460000Y-147930000D02*
X234010000Y-147930000D01*
X235460000Y-147970000D02*
X234021000Y-147970000D01*
X235460000Y-148010000D02*
X234033000Y-148010000D01*
X235460000Y-148050000D02*
X234045000Y-148050000D01*
X235460000Y-148090000D02*
X234058000Y-148090000D01*
X235460000Y-148130000D02*
X234072000Y-148130000D01*
X235460000Y-148170000D02*
X234087000Y-148170000D01*
X235460000Y-148210000D02*
X234102000Y-148210000D01*
X235460000Y-148250000D02*
X234118000Y-148250000D01*
X235460000Y-148290000D02*
X234135000Y-148290000D01*
X235460000Y-148330000D02*
X234153000Y-148330000D01*
X235460000Y-148370000D02*
X234171000Y-148370000D01*
X235460000Y-148410000D02*
X234191000Y-148410000D01*
X235460000Y-148450000D02*
X234211000Y-148450000D01*
X235460000Y-148490000D02*
X234232000Y-148490000D01*
X235460000Y-148530000D02*
X234254000Y-148530000D01*
X235460000Y-148570000D02*
X234277000Y-148570000D01*
X235460000Y-148610000D02*
X234301000Y-148610000D01*
X235460000Y-148650000D02*
X234325000Y-148650000D01*
X235460000Y-148690000D02*
X234351000Y-148690000D01*
X235460000Y-148730000D02*
X234378000Y-148730000D01*
X235460000Y-148770000D02*
X234406000Y-148770000D01*
X235460000Y-148810000D02*
X234435000Y-148810000D01*
X235460000Y-148850000D02*
X234465000Y-148850000D01*
X235460000Y-148890000D02*
X234497000Y-148890000D01*
X235460000Y-148930000D02*
X234530000Y-148930000D01*
X235460000Y-148970000D02*
X234564000Y-148970000D01*
X235460000Y-149010000D02*
X234599000Y-149010000D01*
X235460000Y-149050000D02*
X234636000Y-149050000D01*
X235460000Y-149090000D02*
X234675000Y-149090000D01*
X235460000Y-149130000D02*
X234715000Y-149130000D01*
X235460000Y-149170000D02*
X234757000Y-149170000D01*
X235460000Y-149210000D02*
X234801000Y-149210000D01*
X235460000Y-149250000D02*
X234848000Y-149250000D01*
X235460000Y-149290000D02*
X234896000Y-149290000D01*
X235460000Y-149330000D02*
X234947000Y-149330000D01*
X235460000Y-149370000D02*
X235001000Y-149370000D01*
X235460000Y-149410000D02*
X235057000Y-149410000D01*
X235460000Y-149450000D02*
X235117000Y-149450000D01*
X235460000Y-149490000D02*
X235181000Y-149490000D01*
X235460000Y-149530000D02*
X235249000Y-149530000D01*
X236783000Y-149850000D02*
X236217000Y-149850000D01*
X237017000Y-149810000D02*
X235983000Y-149810000D01*
X237177000Y-149770000D02*
X235823000Y-149770000D01*
X237305000Y-149730000D02*
X235695000Y-149730000D01*
X237414000Y-149690000D02*
X235586000Y-149690000D01*
X237511000Y-149650000D02*
X235489000Y-149650000D01*
X237598000Y-149610000D02*
X235402000Y-149610000D01*
X237677000Y-149570000D02*
X235323000Y-149570000D01*
X237751000Y-149530000D02*
X237540000Y-149530000D01*
X237819000Y-149490000D02*
X237540000Y-149490000D01*
X237883000Y-149450000D02*
X237540000Y-149450000D01*
X237943000Y-149410000D02*
X237540000Y-149410000D01*
X237975000Y-144445225D02*
X237975000Y-144945225D01*
X237999000Y-149370000D02*
X237540000Y-149370000D01*
X238053000Y-149330000D02*
X237540000Y-149330000D01*
X238104000Y-149290000D02*
X237540000Y-149290000D01*
X238152000Y-149250000D02*
X237540000Y-149250000D01*
X238199000Y-149210000D02*
X237540000Y-149210000D01*
X238225000Y-144695225D02*
X237725000Y-144695225D01*
X238243000Y-149170000D02*
X237540000Y-149170000D01*
X238285000Y-149130000D02*
X237540000Y-149130000D01*
X238325000Y-149090000D02*
X237540000Y-149090000D01*
X238364000Y-149050000D02*
X237540000Y-149050000D01*
X238401000Y-149010000D02*
X237540000Y-149010000D01*
X238436000Y-148970000D02*
X237540000Y-148970000D01*
X238470000Y-148930000D02*
X237540000Y-148930000D01*
X238503000Y-148890000D02*
X237540000Y-148890000D01*
X238535000Y-148850000D02*
X237540000Y-148850000D01*
X238565000Y-148810000D02*
X237540000Y-148810000D01*
X238594000Y-148770000D02*
X237540000Y-148770000D01*
X238622000Y-148730000D02*
X237540000Y-148730000D01*
X238649000Y-148690000D02*
X237540000Y-148690000D01*
X238675000Y-148650000D02*
X237540000Y-148650000D01*
X238699000Y-148610000D02*
X237540000Y-148610000D01*
X238723000Y-148570000D02*
X237540000Y-148570000D01*
X238746000Y-148530000D02*
X237540000Y-148530000D01*
X238768000Y-148490000D02*
X237540000Y-148490000D01*
X238789000Y-148450000D02*
X237540000Y-148450000D01*
X238809000Y-148410000D02*
X237540000Y-148410000D01*
X238829000Y-148370000D02*
X237540000Y-148370000D01*
X238847000Y-148330000D02*
X237540000Y-148330000D01*
X238865000Y-148290000D02*
X237540000Y-148290000D01*
X238882000Y-148250000D02*
X237540000Y-148250000D01*
X238898000Y-148210000D02*
X237540000Y-148210000D01*
X238913000Y-148170000D02*
X237540000Y-148170000D01*
X238928000Y-148130000D02*
X237540000Y-148130000D01*
X238942000Y-148090000D02*
X237540000Y-148090000D01*
X238955000Y-148050000D02*
X237540000Y-148050000D01*
X238967000Y-148010000D02*
X237540000Y-148010000D01*
X238979000Y-147970000D02*
X237540000Y-147970000D01*
X238990000Y-147930000D02*
X237540000Y-147930000D01*
X239001000Y-147890000D02*
X237540000Y-147890000D01*
X239010000Y-147850000D02*
X237540000Y-147850000D01*
X239019000Y-147810000D02*
X237540000Y-147810000D01*
X239028000Y-147770000D02*
X237540000Y-147770000D01*
X239036000Y-147730000D02*
X237540000Y-147730000D01*
X239043000Y-147690000D02*
X237540000Y-147690000D01*
X239049000Y-147650000D02*
X237540000Y-147650000D01*
X239055000Y-147610000D02*
X237540000Y-147610000D01*
X239060000Y-147570000D02*
X237540000Y-147570000D01*
X239065000Y-147530000D02*
X237540000Y-147530000D01*
X239069000Y-147490000D02*
X237540000Y-147490000D01*
X239072000Y-147450000D02*
X233928000Y-147450000D01*
X239075000Y-147410000D02*
X233925000Y-147410000D01*
X239077000Y-147370000D02*
X233923000Y-147370000D01*
X239079000Y-147330000D02*
X233921000Y-147330000D01*
X239080000Y-147250000D02*
X233920000Y-147250000D01*
X239080000Y-147290000D02*
X233920000Y-147290000D01*
X239120000Y-147250000D02*
G75*
G02*
X233880000Y-147250000I-2620000J0D01*
G01*
X233880000Y-147250000D02*
G75*
G02*
X239120000Y-147250000I2620000J0D01*
G01*
%TD*%
M02*
