%TF.GenerationSoftware,KiCad,Pcbnew,10.0.0*%
%TF.CreationDate,2026-05-26T22:50:02+05:30*%
%TF.ProjectId,RGB LED Controller,52474220-4c45-4442-9043-6f6e74726f6c,rev?*%
%TF.SameCoordinates,Original*%
%TF.FileFunction,Copper,L2,Bot*%
%TF.FilePolarity,Positive*%
%FSLAX46Y46*%
G04 Gerber Fmt 4.6, Leading zero omitted, Abs format (unit mm)*
G04 Created by KiCad (PCBNEW 10.0.0) date 2026-05-26 22:50:02*
%MOMM*%
%LPD*%
G01*
G04 APERTURE LIST*
G04 Aperture macros list*
%AMRoundRect*
0 Rectangle with rounded corners*
0 $1 Rounding radius*
0 $2 $3 $4 $5 $6 $7 $8 $9 X,Y pos of 4 corners*
0 Add a 4 corners polygon primitive as box body*
4,1,4,$2,$3,$4,$5,$6,$7,$8,$9,$2,$3,0*
0 Add four circle primitives for the rounded corners*
1,1,$1+$1,$2,$3*
1,1,$1+$1,$4,$5*
1,1,$1+$1,$6,$7*
1,1,$1+$1,$8,$9*
0 Add four rect primitives between the rounded corners*
20,1,$1+$1,$2,$3,$4,$5,0*
20,1,$1+$1,$4,$5,$6,$7,0*
20,1,$1+$1,$6,$7,$8,$9,0*
20,1,$1+$1,$8,$9,$2,$3,0*%
G04 Aperture macros list end*
%TA.AperFunction,ComponentPad*%
%ADD10C,1.440000*%
%TD*%
%TA.AperFunction,ComponentPad*%
%ADD11C,1.600000*%
%TD*%
%TA.AperFunction,ComponentPad*%
%ADD12RoundRect,0.250000X-0.550000X0.550000X-0.550000X-0.550000X0.550000X-0.550000X0.550000X0.550000X0*%
%TD*%
%TA.AperFunction,ComponentPad*%
%ADD13O,1.200000X1.600000*%
%TD*%
%TA.AperFunction,ComponentPad*%
%ADD14C,1.200000*%
%TD*%
%TA.AperFunction,ComponentPad*%
%ADD15R,1.700000X1.700000*%
%TD*%
%TA.AperFunction,ComponentPad*%
%ADD16RoundRect,0.250000X1.050000X-1.050000X1.050000X1.050000X-1.050000X1.050000X-1.050000X-1.050000X0*%
%TD*%
%TA.AperFunction,ComponentPad*%
%ADD17C,2.600000*%
%TD*%
%TA.AperFunction,ComponentPad*%
%ADD18R,1.800000X1.800000*%
%TD*%
%TA.AperFunction,ComponentPad*%
%ADD19C,1.800000*%
%TD*%
G04 APERTURE END LIST*
D10*
%TO.P,VR1,3,3_3*%
%TO.N,GND*%
X207620000Y-159000000D03*
%TO.P,VR1,2,2_2*%
X207620000Y-156460000D03*
%TO.P,VR1,1,1_1*%
%TO.N,Net-(J2-Pin_1)*%
X207620000Y-153920000D03*
%TD*%
%TO.P,VR3,3,3_3*%
%TO.N,GND*%
X224620000Y-159000000D03*
%TO.P,VR3,2,2_2*%
%TO.N,Net-(R4-Pad2)*%
X224620000Y-156460000D03*
%TO.P,VR3,1,1_1*%
%TO.N,Net-(J4-Pin_1)*%
X224620000Y-153920000D03*
%TD*%
%TO.P,VR2,3,3_3*%
%TO.N,GND*%
X216120000Y-159000000D03*
%TO.P,VR2,2,2_2*%
X216120000Y-156460000D03*
%TO.P,VR2,1,1_1*%
%TO.N,Net-(J3-Pin_1)*%
X216120000Y-153920000D03*
%TD*%
D11*
%TO.P,C1,2*%
%TO.N,GND*%
X213120000Y-126294888D03*
D12*
%TO.P,C1,1*%
%TO.N,Net-(J1-Pin_2)*%
X213120000Y-123794888D03*
%TD*%
D13*
%TO.P,Q3,1,C_1*%
%TO.N,Net-(Q2-E)*%
X244620000Y-150960000D03*
D14*
%TO.P,Q3,2,B_2*%
%TO.N,Net-(Q3-B)*%
X243350000Y-152230000D03*
%TO.P,Q3,3,E_3*%
%TO.N,Net-(Q3-E)*%
X244620000Y-153500000D03*
%TD*%
%TO.P,Q2,3,E_3*%
%TO.N,Net-(Q2-E)*%
X244620000Y-143500000D03*
%TO.P,Q2,2,B_2*%
%TO.N,Net-(Q2-B)*%
X243350000Y-142230000D03*
D13*
%TO.P,Q2,1,C_1*%
%TO.N,Net-(Q1-E)*%
X244620000Y-140960000D03*
%TD*%
D14*
%TO.P,Q1,3,E_3*%
%TO.N,Net-(Q1-E)*%
X244620000Y-131500000D03*
%TO.P,Q1,2,B_2*%
%TO.N,Net-(Q1-B)*%
X243350000Y-130230000D03*
D13*
%TO.P,Q1,1,C_1*%
%TO.N,Net-(J1-Pin_2)*%
X244620000Y-128960000D03*
%TD*%
D10*
%TO.P,VR4,1,1_1*%
%TO.N,Net-(R11-Pad1)*%
X201700000Y-138500000D03*
%TO.P,VR4,2,2_2*%
%TO.N,Net-(U2-DISCH)*%
X199160000Y-138500000D03*
%TO.P,VR4,3,3_3*%
%TO.N,GND*%
X196620000Y-138500000D03*
%TD*%
D11*
%TO.P,R11,1*%
%TO.N,Net-(R11-Pad1)*%
X204620000Y-145500000D03*
%TO.P,R11,2*%
%TO.N,Net-(U2-DISCH)*%
X197000000Y-145500000D03*
%TD*%
%TO.P,R10,1*%
%TO.N,Net-(Q3-E)*%
X251500000Y-153500000D03*
%TO.P,R10,2*%
%TO.N,Net-(D3-A)*%
X259120000Y-153500000D03*
%TD*%
%TO.P,R9,1*%
%TO.N,Net-(Q2-E)*%
X252000000Y-143500000D03*
%TO.P,R9,2*%
%TO.N,Net-(D2-A)*%
X259620000Y-143500000D03*
%TD*%
%TO.P,R8,1*%
%TO.N,Net-(Q1-E)*%
X252000000Y-131400000D03*
%TO.P,R8,2*%
%TO.N,Net-(D1-A)*%
X259620000Y-131400000D03*
%TD*%
%TO.P,R7,1*%
%TO.N,Net-(R4-Pad2)*%
X230500000Y-152500000D03*
%TO.P,R7,2*%
%TO.N,Net-(Q3-B)*%
X238120000Y-152500000D03*
%TD*%
%TO.P,R6,1*%
%TO.N,Net-(R4-Pad2)*%
X230500000Y-142000000D03*
%TO.P,R6,2*%
%TO.N,Net-(Q2-B)*%
X238120000Y-142000000D03*
%TD*%
%TO.P,R5,1*%
%TO.N,Net-(R4-Pad2)*%
X230500000Y-130500000D03*
%TO.P,R5,2*%
%TO.N,Net-(Q1-B)*%
X238120000Y-130500000D03*
%TD*%
%TO.P,R4,1*%
%TO.N,Net-(U2-OUT)*%
X217500000Y-142000000D03*
%TO.P,R4,2*%
%TO.N,Net-(R4-Pad2)*%
X225120000Y-142000000D03*
%TD*%
D15*
%TO.P,J5,1,Pin_1_1*%
%TO.N,Net-(J5-Pin_1)*%
X220120000Y-133000000D03*
%TD*%
%TO.P,J4,1,Pin_1_1*%
%TO.N,Net-(J4-Pin_1)*%
X225120000Y-148500000D03*
%TD*%
%TO.P,J3,1,Pin_1_1*%
%TO.N,Net-(J3-Pin_1)*%
X216530000Y-148500000D03*
%TD*%
%TO.P,J2,1,Pin_1_1*%
%TO.N,Net-(J2-Pin_1)*%
X208120000Y-148500000D03*
%TD*%
D16*
%TO.P,J1,1,Pin_1_1*%
%TO.N,GND*%
X199292500Y-129045000D03*
D17*
%TO.P,J1,2,Pin_2_2*%
%TO.N,Net-(J1-Pin_2)*%
X199292500Y-123965000D03*
%TD*%
D18*
%TO.P,D3,1,K_1*%
%TO.N,GND*%
X267080000Y-153500000D03*
D19*
%TO.P,D3,2,A_2*%
%TO.N,Net-(D3-A)*%
X264540000Y-153500000D03*
%TD*%
D18*
%TO.P,D2,1,K_1*%
%TO.N,GND*%
X267080000Y-143500000D03*
D19*
%TO.P,D2,2,A_2*%
%TO.N,Net-(D2-A)*%
X264540000Y-143500000D03*
%TD*%
D18*
%TO.P,D1,1,K_1*%
%TO.N,GND*%
X267080000Y-131560000D03*
D19*
%TO.P,D1,2,A_2*%
%TO.N,Net-(D1-A)*%
X264540000Y-131560000D03*
%TD*%
D11*
%TO.P,C3,2*%
%TO.N,GND*%
X211120000Y-143500000D03*
D12*
%TO.P,C3,1*%
%TO.N,Net-(U2-CONT)*%
X211120000Y-141000000D03*
%TD*%
D11*
%TO.P,C2,2*%
%TO.N,GND*%
X225120000Y-126000000D03*
D12*
%TO.P,C2,1*%
%TO.N,Net-(J1-Pin_2)*%
X225120000Y-123500000D03*
%TD*%
M02*
