M48
; DRILL file KiCad 10.0.0 date 2026-05-26T22:50:06
; FORMAT={-:-/ absolute / metric / decimal}
; #@! TF.CreationDate,2026-05-26T22:50:06+05:30
; #@! TF.GenerationSoftware,Kicad,Pcbnew,10.0.0
; #@! TF.FileFunction,Plated,1,2,PTH
FMAT,2
METRIC
; #@! TA.AperFunction,Plated,PTH,ComponentDrill
T1C0.700
; #@! TA.AperFunction,Plated,PTH,ComponentDrill
T2C0.800
; #@! TA.AperFunction,Plated,PTH,ComponentDrill
T3C0.900
; #@! TA.AperFunction,Plated,PTH,ComponentDrill
T4C1.000
; #@! TA.AperFunction,Plated,PTH,ComponentDrill
T5C1.300
%
G90
G05
T1
X243.35Y-130.23
X243.35Y-142.23
X243.35Y-152.23
X244.62Y-128.96
X244.62Y-131.5
X244.62Y-140.96
X244.62Y-143.5
X244.62Y-150.96
X244.62Y-153.5
T2
X196.62Y-138.5
X197.0Y-145.5
X199.16Y-138.5
X201.7Y-138.5
X204.62Y-145.5
X207.62Y-153.92
X207.62Y-156.46
X207.62Y-159.0
X211.12Y-141.0
X211.12Y-143.5
X213.12Y-123.795
X213.12Y-126.295
X216.12Y-153.92
X216.12Y-156.46
X216.12Y-159.0
X217.5Y-142.0
X224.62Y-153.92
X224.62Y-156.46
X224.62Y-159.0
X225.12Y-123.5
X225.12Y-126.0
X225.12Y-142.0
X230.5Y-130.5
X230.5Y-142.0
X230.5Y-152.5
X238.12Y-130.5
X238.12Y-142.0
X238.12Y-152.5
X251.5Y-153.5
X252.0Y-131.4
X252.0Y-143.5
X259.12Y-153.5
X259.62Y-131.4
X259.62Y-143.5
T3
X264.54Y-131.56
X264.54Y-143.5
X264.54Y-153.5
X267.08Y-131.56
X267.08Y-143.5
X267.08Y-153.5
T4
X208.12Y-148.5
X216.53Y-148.5
X220.12Y-133.0
X225.12Y-148.5
T5
X199.292Y-123.965
X199.292Y-129.045
M30
