M48
; DRILL file KiCad 10.0.0 date 2026-05-22T18:11:15
; FORMAT={-:-/ absolute / metric / decimal}
; #@! TF.CreationDate,2026-05-22T18:11:15+05:30
; #@! TF.GenerationSoftware,Kicad,Pcbnew,10.0.0
; #@! TF.FileFunction,Plated,1,2,PTH
FMAT,2
METRIC
; #@! TA.AperFunction,Plated,PTH,ComponentDrill
T1C0.800
; #@! TA.AperFunction,Plated,PTH,ComponentDrill
T2C0.900
; #@! TA.AperFunction,Plated,PTH,ComponentDrill
T3C1.000
; #@! TA.AperFunction,Plated,PTH,ComponentDrill
T4C1.300
%
G90
G05
T1
X219.48Y-137.522
X219.48Y-140.062
X219.48Y-142.602
X219.48Y-145.142
X219.48Y-147.682
X219.48Y-150.222
X219.48Y-152.762
X227.1Y-137.522
X227.1Y-140.062
X227.1Y-142.602
X227.1Y-145.142
X227.1Y-147.682
X227.1Y-150.222
X227.1Y-152.762
X231.395Y-143.327
X231.395Y-152.327
X231.815Y-137.827
X231.815Y-147.827
X241.555Y-143.327
X241.555Y-152.327
X241.975Y-137.827
X241.975Y-147.827
T2
X247.325Y-153.557
X247.325Y-156.097
X247.395Y-132.562
X247.395Y-135.102
X247.395Y-146.562
X247.395Y-149.102
X247.56Y-139.557
X247.56Y-142.097
T3
X211.395Y-133.247
X211.395Y-135.787
T4
X208.395Y-152.827
X213.475Y-152.827
M30
