%TF.GenerationSoftware,KiCad,Pcbnew,10.0.0*%
%TF.CreationDate,2026-05-22T18:11:13+05:30*%
%TF.ProjectId,Binary Counter,42696e61-7279-4204-936f-756e7465722e,rev?*%
%TF.SameCoordinates,Original*%
%TF.FileFunction,Legend,Top*%
%TF.FilePolarity,Positive*%
%FSLAX46Y46*%
G04 Gerber Fmt 4.6, Leading zero omitted, Abs format (unit mm)*
G04 Created by KiCad (PCBNEW 10.0.0) date 2026-05-22 18:11:13*
%MOMM*%
%LPD*%
G01*
G04 APERTURE LIST*
%ADD10C,0.100000*%
%ADD11C,0.150000*%
%ADD12C,0.120000*%
G04 APERTURE END LIST*
D10*
X254865550Y-154794839D02*
X254770312Y-154747220D01*
X254770312Y-154747220D02*
X254675074Y-154651982D01*
X254675074Y-154651982D02*
X254532217Y-154509124D01*
X254532217Y-154509124D02*
X254436979Y-154461505D01*
X254436979Y-154461505D02*
X254341741Y-154461505D01*
X254389360Y-154699601D02*
X254294122Y-154651982D01*
X254294122Y-154651982D02*
X254198884Y-154556743D01*
X254198884Y-154556743D02*
X254151265Y-154366267D01*
X254151265Y-154366267D02*
X254151265Y-154032934D01*
X254151265Y-154032934D02*
X254198884Y-153842458D01*
X254198884Y-153842458D02*
X254294122Y-153747220D01*
X254294122Y-153747220D02*
X254389360Y-153699601D01*
X254389360Y-153699601D02*
X254579836Y-153699601D01*
X254579836Y-153699601D02*
X254675074Y-153747220D01*
X254675074Y-153747220D02*
X254770312Y-153842458D01*
X254770312Y-153842458D02*
X254817931Y-154032934D01*
X254817931Y-154032934D02*
X254817931Y-154366267D01*
X254817931Y-154366267D02*
X254770312Y-154556743D01*
X254770312Y-154556743D02*
X254675074Y-154651982D01*
X254675074Y-154651982D02*
X254579836Y-154699601D01*
X254579836Y-154699601D02*
X254389360Y-154699601D01*
X255151265Y-153699601D02*
X255770312Y-153699601D01*
X255770312Y-153699601D02*
X255436979Y-154080553D01*
X255436979Y-154080553D02*
X255579836Y-154080553D01*
X255579836Y-154080553D02*
X255675074Y-154128172D01*
X255675074Y-154128172D02*
X255722693Y-154175791D01*
X255722693Y-154175791D02*
X255770312Y-154271029D01*
X255770312Y-154271029D02*
X255770312Y-154509124D01*
X255770312Y-154509124D02*
X255722693Y-154604362D01*
X255722693Y-154604362D02*
X255675074Y-154651982D01*
X255675074Y-154651982D02*
X255579836Y-154699601D01*
X255579836Y-154699601D02*
X255294122Y-154699601D01*
X255294122Y-154699601D02*
X255198884Y-154651982D01*
X255198884Y-154651982D02*
X255151265Y-154604362D01*
X254865550Y-147799839D02*
X254770312Y-147752220D01*
X254770312Y-147752220D02*
X254675074Y-147656982D01*
X254675074Y-147656982D02*
X254532217Y-147514124D01*
X254532217Y-147514124D02*
X254436979Y-147466505D01*
X254436979Y-147466505D02*
X254341741Y-147466505D01*
X254389360Y-147704601D02*
X254294122Y-147656982D01*
X254294122Y-147656982D02*
X254198884Y-147561743D01*
X254198884Y-147561743D02*
X254151265Y-147371267D01*
X254151265Y-147371267D02*
X254151265Y-147037934D01*
X254151265Y-147037934D02*
X254198884Y-146847458D01*
X254198884Y-146847458D02*
X254294122Y-146752220D01*
X254294122Y-146752220D02*
X254389360Y-146704601D01*
X254389360Y-146704601D02*
X254579836Y-146704601D01*
X254579836Y-146704601D02*
X254675074Y-146752220D01*
X254675074Y-146752220D02*
X254770312Y-146847458D01*
X254770312Y-146847458D02*
X254817931Y-147037934D01*
X254817931Y-147037934D02*
X254817931Y-147371267D01*
X254817931Y-147371267D02*
X254770312Y-147561743D01*
X254770312Y-147561743D02*
X254675074Y-147656982D01*
X254675074Y-147656982D02*
X254579836Y-147704601D01*
X254579836Y-147704601D02*
X254389360Y-147704601D01*
X255198884Y-146799839D02*
X255246503Y-146752220D01*
X255246503Y-146752220D02*
X255341741Y-146704601D01*
X255341741Y-146704601D02*
X255579836Y-146704601D01*
X255579836Y-146704601D02*
X255675074Y-146752220D01*
X255675074Y-146752220D02*
X255722693Y-146799839D01*
X255722693Y-146799839D02*
X255770312Y-146895077D01*
X255770312Y-146895077D02*
X255770312Y-146990315D01*
X255770312Y-146990315D02*
X255722693Y-147133172D01*
X255722693Y-147133172D02*
X255151265Y-147704601D01*
X255151265Y-147704601D02*
X255770312Y-147704601D01*
X254865550Y-140794839D02*
X254770312Y-140747220D01*
X254770312Y-140747220D02*
X254675074Y-140651982D01*
X254675074Y-140651982D02*
X254532217Y-140509124D01*
X254532217Y-140509124D02*
X254436979Y-140461505D01*
X254436979Y-140461505D02*
X254341741Y-140461505D01*
X254389360Y-140699601D02*
X254294122Y-140651982D01*
X254294122Y-140651982D02*
X254198884Y-140556743D01*
X254198884Y-140556743D02*
X254151265Y-140366267D01*
X254151265Y-140366267D02*
X254151265Y-140032934D01*
X254151265Y-140032934D02*
X254198884Y-139842458D01*
X254198884Y-139842458D02*
X254294122Y-139747220D01*
X254294122Y-139747220D02*
X254389360Y-139699601D01*
X254389360Y-139699601D02*
X254579836Y-139699601D01*
X254579836Y-139699601D02*
X254675074Y-139747220D01*
X254675074Y-139747220D02*
X254770312Y-139842458D01*
X254770312Y-139842458D02*
X254817931Y-140032934D01*
X254817931Y-140032934D02*
X254817931Y-140366267D01*
X254817931Y-140366267D02*
X254770312Y-140556743D01*
X254770312Y-140556743D02*
X254675074Y-140651982D01*
X254675074Y-140651982D02*
X254579836Y-140699601D01*
X254579836Y-140699601D02*
X254389360Y-140699601D01*
X255770312Y-140699601D02*
X255198884Y-140699601D01*
X255484598Y-140699601D02*
X255484598Y-139699601D01*
X255484598Y-139699601D02*
X255389360Y-139842458D01*
X255389360Y-139842458D02*
X255294122Y-139937696D01*
X255294122Y-139937696D02*
X255198884Y-139985315D01*
X254865550Y-135294839D02*
X254770312Y-135247220D01*
X254770312Y-135247220D02*
X254675074Y-135151982D01*
X254675074Y-135151982D02*
X254532217Y-135009124D01*
X254532217Y-135009124D02*
X254436979Y-134961505D01*
X254436979Y-134961505D02*
X254341741Y-134961505D01*
X254389360Y-135199601D02*
X254294122Y-135151982D01*
X254294122Y-135151982D02*
X254198884Y-135056743D01*
X254198884Y-135056743D02*
X254151265Y-134866267D01*
X254151265Y-134866267D02*
X254151265Y-134532934D01*
X254151265Y-134532934D02*
X254198884Y-134342458D01*
X254198884Y-134342458D02*
X254294122Y-134247220D01*
X254294122Y-134247220D02*
X254389360Y-134199601D01*
X254389360Y-134199601D02*
X254579836Y-134199601D01*
X254579836Y-134199601D02*
X254675074Y-134247220D01*
X254675074Y-134247220D02*
X254770312Y-134342458D01*
X254770312Y-134342458D02*
X254817931Y-134532934D01*
X254817931Y-134532934D02*
X254817931Y-134866267D01*
X254817931Y-134866267D02*
X254770312Y-135056743D01*
X254770312Y-135056743D02*
X254675074Y-135151982D01*
X254675074Y-135151982D02*
X254579836Y-135199601D01*
X254579836Y-135199601D02*
X254389360Y-135199601D01*
X255436979Y-134199601D02*
X255532217Y-134199601D01*
X255532217Y-134199601D02*
X255627455Y-134247220D01*
X255627455Y-134247220D02*
X255675074Y-134294839D01*
X255675074Y-134294839D02*
X255722693Y-134390077D01*
X255722693Y-134390077D02*
X255770312Y-134580553D01*
X255770312Y-134580553D02*
X255770312Y-134818648D01*
X255770312Y-134818648D02*
X255722693Y-135009124D01*
X255722693Y-135009124D02*
X255675074Y-135104362D01*
X255675074Y-135104362D02*
X255627455Y-135151982D01*
X255627455Y-135151982D02*
X255532217Y-135199601D01*
X255532217Y-135199601D02*
X255436979Y-135199601D01*
X255436979Y-135199601D02*
X255341741Y-135151982D01*
X255341741Y-135151982D02*
X255294122Y-135104362D01*
X255294122Y-135104362D02*
X255246503Y-135009124D01*
X255246503Y-135009124D02*
X255198884Y-134818648D01*
X255198884Y-134818648D02*
X255198884Y-134580553D01*
X255198884Y-134580553D02*
X255246503Y-134390077D01*
X255246503Y-134390077D02*
X255294122Y-134294839D01*
X255294122Y-134294839D02*
X255341741Y-134247220D01*
X255341741Y-134247220D02*
X255436979Y-134199601D01*
X253698884Y-157259601D02*
X253698884Y-156259601D01*
X253698884Y-156259601D02*
X254032217Y-156973886D01*
X254032217Y-156973886D02*
X254365550Y-156259601D01*
X254365550Y-156259601D02*
X254365550Y-157259601D01*
X254794122Y-157211982D02*
X254936979Y-157259601D01*
X254936979Y-157259601D02*
X255175074Y-157259601D01*
X255175074Y-157259601D02*
X255270312Y-157211982D01*
X255270312Y-157211982D02*
X255317931Y-157164362D01*
X255317931Y-157164362D02*
X255365550Y-157069124D01*
X255365550Y-157069124D02*
X255365550Y-156973886D01*
X255365550Y-156973886D02*
X255317931Y-156878648D01*
X255317931Y-156878648D02*
X255270312Y-156831029D01*
X255270312Y-156831029D02*
X255175074Y-156783410D01*
X255175074Y-156783410D02*
X254984598Y-156735791D01*
X254984598Y-156735791D02*
X254889360Y-156688172D01*
X254889360Y-156688172D02*
X254841741Y-156640553D01*
X254841741Y-156640553D02*
X254794122Y-156545315D01*
X254794122Y-156545315D02*
X254794122Y-156450077D01*
X254794122Y-156450077D02*
X254841741Y-156354839D01*
X254841741Y-156354839D02*
X254889360Y-156307220D01*
X254889360Y-156307220D02*
X254984598Y-156259601D01*
X254984598Y-156259601D02*
X255222693Y-156259601D01*
X255222693Y-156259601D02*
X255365550Y-156307220D01*
X256127455Y-156735791D02*
X256270312Y-156783410D01*
X256270312Y-156783410D02*
X256317931Y-156831029D01*
X256317931Y-156831029D02*
X256365550Y-156926267D01*
X256365550Y-156926267D02*
X256365550Y-157069124D01*
X256365550Y-157069124D02*
X256317931Y-157164362D01*
X256317931Y-157164362D02*
X256270312Y-157211982D01*
X256270312Y-157211982D02*
X256175074Y-157259601D01*
X256175074Y-157259601D02*
X255794122Y-157259601D01*
X255794122Y-157259601D02*
X255794122Y-156259601D01*
X255794122Y-156259601D02*
X256127455Y-156259601D01*
X256127455Y-156259601D02*
X256222693Y-156307220D01*
X256222693Y-156307220D02*
X256270312Y-156354839D01*
X256270312Y-156354839D02*
X256317931Y-156450077D01*
X256317931Y-156450077D02*
X256317931Y-156545315D01*
X256317931Y-156545315D02*
X256270312Y-156640553D01*
X256270312Y-156640553D02*
X256222693Y-156688172D01*
X256222693Y-156688172D02*
X256127455Y-156735791D01*
X256127455Y-156735791D02*
X255794122Y-156735791D01*
X254175074Y-132199601D02*
X253698884Y-132199601D01*
X253698884Y-132199601D02*
X253698884Y-131199601D01*
X254460789Y-132151982D02*
X254603646Y-132199601D01*
X254603646Y-132199601D02*
X254841741Y-132199601D01*
X254841741Y-132199601D02*
X254936979Y-132151982D01*
X254936979Y-132151982D02*
X254984598Y-132104362D01*
X254984598Y-132104362D02*
X255032217Y-132009124D01*
X255032217Y-132009124D02*
X255032217Y-131913886D01*
X255032217Y-131913886D02*
X254984598Y-131818648D01*
X254984598Y-131818648D02*
X254936979Y-131771029D01*
X254936979Y-131771029D02*
X254841741Y-131723410D01*
X254841741Y-131723410D02*
X254651265Y-131675791D01*
X254651265Y-131675791D02*
X254556027Y-131628172D01*
X254556027Y-131628172D02*
X254508408Y-131580553D01*
X254508408Y-131580553D02*
X254460789Y-131485315D01*
X254460789Y-131485315D02*
X254460789Y-131390077D01*
X254460789Y-131390077D02*
X254508408Y-131294839D01*
X254508408Y-131294839D02*
X254556027Y-131247220D01*
X254556027Y-131247220D02*
X254651265Y-131199601D01*
X254651265Y-131199601D02*
X254889360Y-131199601D01*
X254889360Y-131199601D02*
X255032217Y-131247220D01*
X255794122Y-131675791D02*
X255936979Y-131723410D01*
X255936979Y-131723410D02*
X255984598Y-131771029D01*
X255984598Y-131771029D02*
X256032217Y-131866267D01*
X256032217Y-131866267D02*
X256032217Y-132009124D01*
X256032217Y-132009124D02*
X255984598Y-132104362D01*
X255984598Y-132104362D02*
X255936979Y-132151982D01*
X255936979Y-132151982D02*
X255841741Y-132199601D01*
X255841741Y-132199601D02*
X255460789Y-132199601D01*
X255460789Y-132199601D02*
X255460789Y-131199601D01*
X255460789Y-131199601D02*
X255794122Y-131199601D01*
X255794122Y-131199601D02*
X255889360Y-131247220D01*
X255889360Y-131247220D02*
X255936979Y-131294839D01*
X255936979Y-131294839D02*
X255984598Y-131390077D01*
X255984598Y-131390077D02*
X255984598Y-131485315D01*
X255984598Y-131485315D02*
X255936979Y-131580553D01*
X255936979Y-131580553D02*
X255889360Y-131628172D01*
X255889360Y-131628172D02*
X255794122Y-131675791D01*
X255794122Y-131675791D02*
X255460789Y-131675791D01*
X208198884Y-136318648D02*
X208960789Y-136318648D01*
X208198884Y-132318648D02*
X208960789Y-132318648D01*
X208579836Y-132699601D02*
X208579836Y-131937696D01*
X208175074Y-133699601D02*
X207698884Y-133699601D01*
X207698884Y-133699601D02*
X207651265Y-134175791D01*
X207651265Y-134175791D02*
X207698884Y-134128172D01*
X207698884Y-134128172D02*
X207794122Y-134080553D01*
X207794122Y-134080553D02*
X208032217Y-134080553D01*
X208032217Y-134080553D02*
X208127455Y-134128172D01*
X208127455Y-134128172D02*
X208175074Y-134175791D01*
X208175074Y-134175791D02*
X208222693Y-134271029D01*
X208222693Y-134271029D02*
X208222693Y-134509124D01*
X208222693Y-134509124D02*
X208175074Y-134604362D01*
X208175074Y-134604362D02*
X208127455Y-134651982D01*
X208127455Y-134651982D02*
X208032217Y-134699601D01*
X208032217Y-134699601D02*
X207794122Y-134699601D01*
X207794122Y-134699601D02*
X207698884Y-134651982D01*
X207698884Y-134651982D02*
X207651265Y-134604362D01*
X208508408Y-133699601D02*
X208841741Y-134699601D01*
X208841741Y-134699601D02*
X209175074Y-133699601D01*
X214198884Y-144818648D02*
X214960789Y-144818648D01*
X214579836Y-145199601D02*
X214579836Y-144437696D01*
X207198884Y-144818648D02*
X207960789Y-144818648D01*
X210270312Y-145104362D02*
X210222693Y-145151982D01*
X210222693Y-145151982D02*
X210079836Y-145199601D01*
X210079836Y-145199601D02*
X209984598Y-145199601D01*
X209984598Y-145199601D02*
X209841741Y-145151982D01*
X209841741Y-145151982D02*
X209746503Y-145056743D01*
X209746503Y-145056743D02*
X209698884Y-144961505D01*
X209698884Y-144961505D02*
X209651265Y-144771029D01*
X209651265Y-144771029D02*
X209651265Y-144628172D01*
X209651265Y-144628172D02*
X209698884Y-144437696D01*
X209698884Y-144437696D02*
X209746503Y-144342458D01*
X209746503Y-144342458D02*
X209841741Y-144247220D01*
X209841741Y-144247220D02*
X209984598Y-144199601D01*
X209984598Y-144199601D02*
X210079836Y-144199601D01*
X210079836Y-144199601D02*
X210222693Y-144247220D01*
X210222693Y-144247220D02*
X210270312Y-144294839D01*
X211175074Y-145199601D02*
X210698884Y-145199601D01*
X210698884Y-145199601D02*
X210698884Y-144199601D01*
X211508408Y-145199601D02*
X211508408Y-144199601D01*
X212079836Y-145199601D02*
X211651265Y-144628172D01*
X212079836Y-144199601D02*
X211508408Y-144771029D01*
X244532217Y-128675791D02*
X244675074Y-128723410D01*
X244675074Y-128723410D02*
X244722693Y-128771029D01*
X244722693Y-128771029D02*
X244770312Y-128866267D01*
X244770312Y-128866267D02*
X244770312Y-129009124D01*
X244770312Y-129009124D02*
X244722693Y-129104362D01*
X244722693Y-129104362D02*
X244675074Y-129151982D01*
X244675074Y-129151982D02*
X244579836Y-129199601D01*
X244579836Y-129199601D02*
X244198884Y-129199601D01*
X244198884Y-129199601D02*
X244198884Y-128199601D01*
X244198884Y-128199601D02*
X244532217Y-128199601D01*
X244532217Y-128199601D02*
X244627455Y-128247220D01*
X244627455Y-128247220D02*
X244675074Y-128294839D01*
X244675074Y-128294839D02*
X244722693Y-128390077D01*
X244722693Y-128390077D02*
X244722693Y-128485315D01*
X244722693Y-128485315D02*
X244675074Y-128580553D01*
X244675074Y-128580553D02*
X244627455Y-128628172D01*
X244627455Y-128628172D02*
X244532217Y-128675791D01*
X244532217Y-128675791D02*
X244198884Y-128675791D01*
X245770312Y-129104362D02*
X245722693Y-129151982D01*
X245722693Y-129151982D02*
X245579836Y-129199601D01*
X245579836Y-129199601D02*
X245484598Y-129199601D01*
X245484598Y-129199601D02*
X245341741Y-129151982D01*
X245341741Y-129151982D02*
X245246503Y-129056743D01*
X245246503Y-129056743D02*
X245198884Y-128961505D01*
X245198884Y-128961505D02*
X245151265Y-128771029D01*
X245151265Y-128771029D02*
X245151265Y-128628172D01*
X245151265Y-128628172D02*
X245198884Y-128437696D01*
X245198884Y-128437696D02*
X245246503Y-128342458D01*
X245246503Y-128342458D02*
X245341741Y-128247220D01*
X245341741Y-128247220D02*
X245484598Y-128199601D01*
X245484598Y-128199601D02*
X245579836Y-128199601D01*
X245579836Y-128199601D02*
X245722693Y-128247220D01*
X245722693Y-128247220D02*
X245770312Y-128294839D01*
X246198884Y-129199601D02*
X246198884Y-128199601D01*
X246198884Y-128199601D02*
X246436979Y-128199601D01*
X246436979Y-128199601D02*
X246579836Y-128247220D01*
X246579836Y-128247220D02*
X246675074Y-128342458D01*
X246675074Y-128342458D02*
X246722693Y-128437696D01*
X246722693Y-128437696D02*
X246770312Y-128628172D01*
X246770312Y-128628172D02*
X246770312Y-128771029D01*
X246770312Y-128771029D02*
X246722693Y-128961505D01*
X246722693Y-128961505D02*
X246675074Y-129056743D01*
X246675074Y-129056743D02*
X246579836Y-129151982D01*
X246579836Y-129151982D02*
X246436979Y-129199601D01*
X246436979Y-129199601D02*
X246198884Y-129199601D01*
X248532217Y-129104362D02*
X248484598Y-129151982D01*
X248484598Y-129151982D02*
X248341741Y-129199601D01*
X248341741Y-129199601D02*
X248246503Y-129199601D01*
X248246503Y-129199601D02*
X248103646Y-129151982D01*
X248103646Y-129151982D02*
X248008408Y-129056743D01*
X248008408Y-129056743D02*
X247960789Y-128961505D01*
X247960789Y-128961505D02*
X247913170Y-128771029D01*
X247913170Y-128771029D02*
X247913170Y-128628172D01*
X247913170Y-128628172D02*
X247960789Y-128437696D01*
X247960789Y-128437696D02*
X248008408Y-128342458D01*
X248008408Y-128342458D02*
X248103646Y-128247220D01*
X248103646Y-128247220D02*
X248246503Y-128199601D01*
X248246503Y-128199601D02*
X248341741Y-128199601D01*
X248341741Y-128199601D02*
X248484598Y-128247220D01*
X248484598Y-128247220D02*
X248532217Y-128294839D01*
X249151265Y-128199601D02*
X249341741Y-128199601D01*
X249341741Y-128199601D02*
X249436979Y-128247220D01*
X249436979Y-128247220D02*
X249532217Y-128342458D01*
X249532217Y-128342458D02*
X249579836Y-128532934D01*
X249579836Y-128532934D02*
X249579836Y-128866267D01*
X249579836Y-128866267D02*
X249532217Y-129056743D01*
X249532217Y-129056743D02*
X249436979Y-129151982D01*
X249436979Y-129151982D02*
X249341741Y-129199601D01*
X249341741Y-129199601D02*
X249151265Y-129199601D01*
X249151265Y-129199601D02*
X249056027Y-129151982D01*
X249056027Y-129151982D02*
X248960789Y-129056743D01*
X248960789Y-129056743D02*
X248913170Y-128866267D01*
X248913170Y-128866267D02*
X248913170Y-128532934D01*
X248913170Y-128532934D02*
X248960789Y-128342458D01*
X248960789Y-128342458D02*
X249056027Y-128247220D01*
X249056027Y-128247220D02*
X249151265Y-128199601D01*
X250008408Y-128199601D02*
X250008408Y-129009124D01*
X250008408Y-129009124D02*
X250056027Y-129104362D01*
X250056027Y-129104362D02*
X250103646Y-129151982D01*
X250103646Y-129151982D02*
X250198884Y-129199601D01*
X250198884Y-129199601D02*
X250389360Y-129199601D01*
X250389360Y-129199601D02*
X250484598Y-129151982D01*
X250484598Y-129151982D02*
X250532217Y-129104362D01*
X250532217Y-129104362D02*
X250579836Y-129009124D01*
X250579836Y-129009124D02*
X250579836Y-128199601D01*
X251056027Y-129199601D02*
X251056027Y-128199601D01*
X251056027Y-128199601D02*
X251627455Y-129199601D01*
X251627455Y-129199601D02*
X251627455Y-128199601D01*
X251960789Y-128199601D02*
X252532217Y-128199601D01*
X252246503Y-129199601D02*
X252246503Y-128199601D01*
X252865551Y-128675791D02*
X253198884Y-128675791D01*
X253341741Y-129199601D02*
X252865551Y-129199601D01*
X252865551Y-129199601D02*
X252865551Y-128199601D01*
X252865551Y-128199601D02*
X253341741Y-128199601D01*
X254341741Y-129199601D02*
X254008408Y-128723410D01*
X253770313Y-129199601D02*
X253770313Y-128199601D01*
X253770313Y-128199601D02*
X254151265Y-128199601D01*
X254151265Y-128199601D02*
X254246503Y-128247220D01*
X254246503Y-128247220D02*
X254294122Y-128294839D01*
X254294122Y-128294839D02*
X254341741Y-128390077D01*
X254341741Y-128390077D02*
X254341741Y-128532934D01*
X254341741Y-128532934D02*
X254294122Y-128628172D01*
X254294122Y-128628172D02*
X254246503Y-128675791D01*
X254246503Y-128675791D02*
X254151265Y-128723410D01*
X254151265Y-128723410D02*
X253770313Y-128723410D01*
D11*
X211061666Y-130322001D02*
X211061666Y-131036286D01*
X211061666Y-131036286D02*
X211014047Y-131179143D01*
X211014047Y-131179143D02*
X210918809Y-131274382D01*
X210918809Y-131274382D02*
X210775952Y-131322001D01*
X210775952Y-131322001D02*
X210680714Y-131322001D01*
X211490238Y-130417239D02*
X211537857Y-130369620D01*
X211537857Y-130369620D02*
X211633095Y-130322001D01*
X211633095Y-130322001D02*
X211871190Y-130322001D01*
X211871190Y-130322001D02*
X211966428Y-130369620D01*
X211966428Y-130369620D02*
X212014047Y-130417239D01*
X212014047Y-130417239D02*
X212061666Y-130512477D01*
X212061666Y-130512477D02*
X212061666Y-130607715D01*
X212061666Y-130607715D02*
X212014047Y-130750572D01*
X212014047Y-130750572D02*
X211442619Y-131322001D01*
X211442619Y-131322001D02*
X212061666Y-131322001D01*
X243819819Y-155565276D02*
X242819819Y-155565276D01*
X242819819Y-155565276D02*
X242819819Y-155327181D01*
X242819819Y-155327181D02*
X242867438Y-155184324D01*
X242867438Y-155184324D02*
X242962676Y-155089086D01*
X242962676Y-155089086D02*
X243057914Y-155041467D01*
X243057914Y-155041467D02*
X243248390Y-154993848D01*
X243248390Y-154993848D02*
X243391247Y-154993848D01*
X243391247Y-154993848D02*
X243581723Y-155041467D01*
X243581723Y-155041467D02*
X243676961Y-155089086D01*
X243676961Y-155089086D02*
X243772200Y-155184324D01*
X243772200Y-155184324D02*
X243819819Y-155327181D01*
X243819819Y-155327181D02*
X243819819Y-155565276D01*
X243153152Y-154136705D02*
X243819819Y-154136705D01*
X242772200Y-154374800D02*
X243486485Y-154612895D01*
X243486485Y-154612895D02*
X243486485Y-153993848D01*
X243889819Y-148570276D02*
X242889819Y-148570276D01*
X242889819Y-148570276D02*
X242889819Y-148332181D01*
X242889819Y-148332181D02*
X242937438Y-148189324D01*
X242937438Y-148189324D02*
X243032676Y-148094086D01*
X243032676Y-148094086D02*
X243127914Y-148046467D01*
X243127914Y-148046467D02*
X243318390Y-147998848D01*
X243318390Y-147998848D02*
X243461247Y-147998848D01*
X243461247Y-147998848D02*
X243651723Y-148046467D01*
X243651723Y-148046467D02*
X243746961Y-148094086D01*
X243746961Y-148094086D02*
X243842200Y-148189324D01*
X243842200Y-148189324D02*
X243889819Y-148332181D01*
X243889819Y-148332181D02*
X243889819Y-148570276D01*
X242889819Y-147665514D02*
X242889819Y-147046467D01*
X242889819Y-147046467D02*
X243270771Y-147379800D01*
X243270771Y-147379800D02*
X243270771Y-147236943D01*
X243270771Y-147236943D02*
X243318390Y-147141705D01*
X243318390Y-147141705D02*
X243366009Y-147094086D01*
X243366009Y-147094086D02*
X243461247Y-147046467D01*
X243461247Y-147046467D02*
X243699342Y-147046467D01*
X243699342Y-147046467D02*
X243794580Y-147094086D01*
X243794580Y-147094086D02*
X243842200Y-147141705D01*
X243842200Y-147141705D02*
X243889819Y-147236943D01*
X243889819Y-147236943D02*
X243889819Y-147522657D01*
X243889819Y-147522657D02*
X243842200Y-147617895D01*
X243842200Y-147617895D02*
X243794580Y-147665514D01*
X244054819Y-141565276D02*
X243054819Y-141565276D01*
X243054819Y-141565276D02*
X243054819Y-141327181D01*
X243054819Y-141327181D02*
X243102438Y-141184324D01*
X243102438Y-141184324D02*
X243197676Y-141089086D01*
X243197676Y-141089086D02*
X243292914Y-141041467D01*
X243292914Y-141041467D02*
X243483390Y-140993848D01*
X243483390Y-140993848D02*
X243626247Y-140993848D01*
X243626247Y-140993848D02*
X243816723Y-141041467D01*
X243816723Y-141041467D02*
X243911961Y-141089086D01*
X243911961Y-141089086D02*
X244007200Y-141184324D01*
X244007200Y-141184324D02*
X244054819Y-141327181D01*
X244054819Y-141327181D02*
X244054819Y-141565276D01*
X243150057Y-140612895D02*
X243102438Y-140565276D01*
X243102438Y-140565276D02*
X243054819Y-140470038D01*
X243054819Y-140470038D02*
X243054819Y-140231943D01*
X243054819Y-140231943D02*
X243102438Y-140136705D01*
X243102438Y-140136705D02*
X243150057Y-140089086D01*
X243150057Y-140089086D02*
X243245295Y-140041467D01*
X243245295Y-140041467D02*
X243340533Y-140041467D01*
X243340533Y-140041467D02*
X243483390Y-140089086D01*
X243483390Y-140089086D02*
X244054819Y-140660514D01*
X244054819Y-140660514D02*
X244054819Y-140041467D01*
X243889819Y-134570276D02*
X242889819Y-134570276D01*
X242889819Y-134570276D02*
X242889819Y-134332181D01*
X242889819Y-134332181D02*
X242937438Y-134189324D01*
X242937438Y-134189324D02*
X243032676Y-134094086D01*
X243032676Y-134094086D02*
X243127914Y-134046467D01*
X243127914Y-134046467D02*
X243318390Y-133998848D01*
X243318390Y-133998848D02*
X243461247Y-133998848D01*
X243461247Y-133998848D02*
X243651723Y-134046467D01*
X243651723Y-134046467D02*
X243746961Y-134094086D01*
X243746961Y-134094086D02*
X243842200Y-134189324D01*
X243842200Y-134189324D02*
X243889819Y-134332181D01*
X243889819Y-134332181D02*
X243889819Y-134570276D01*
X243889819Y-133046467D02*
X243889819Y-133617895D01*
X243889819Y-133332181D02*
X242889819Y-133332181D01*
X242889819Y-133332181D02*
X243032676Y-133427419D01*
X243032676Y-133427419D02*
X243127914Y-133522657D01*
X243127914Y-133522657D02*
X243175533Y-133617895D01*
X236728333Y-145912001D02*
X236395000Y-145435810D01*
X236156905Y-145912001D02*
X236156905Y-144912001D01*
X236156905Y-144912001D02*
X236537857Y-144912001D01*
X236537857Y-144912001D02*
X236633095Y-144959620D01*
X236633095Y-144959620D02*
X236680714Y-145007239D01*
X236680714Y-145007239D02*
X236728333Y-145102477D01*
X236728333Y-145102477D02*
X236728333Y-145245334D01*
X236728333Y-145245334D02*
X236680714Y-145340572D01*
X236680714Y-145340572D02*
X236633095Y-145388191D01*
X236633095Y-145388191D02*
X236537857Y-145435810D01*
X236537857Y-145435810D02*
X236156905Y-145435810D01*
X237061667Y-144912001D02*
X237680714Y-144912001D01*
X237680714Y-144912001D02*
X237347381Y-145292953D01*
X237347381Y-145292953D02*
X237490238Y-145292953D01*
X237490238Y-145292953D02*
X237585476Y-145340572D01*
X237585476Y-145340572D02*
X237633095Y-145388191D01*
X237633095Y-145388191D02*
X237680714Y-145483429D01*
X237680714Y-145483429D02*
X237680714Y-145721524D01*
X237680714Y-145721524D02*
X237633095Y-145816762D01*
X237633095Y-145816762D02*
X237585476Y-145864382D01*
X237585476Y-145864382D02*
X237490238Y-145912001D01*
X237490238Y-145912001D02*
X237204524Y-145912001D01*
X237204524Y-145912001D02*
X237109286Y-145864382D01*
X237109286Y-145864382D02*
X237061667Y-145816762D01*
X236728333Y-135912001D02*
X236395000Y-135435810D01*
X236156905Y-135912001D02*
X236156905Y-134912001D01*
X236156905Y-134912001D02*
X236537857Y-134912001D01*
X236537857Y-134912001D02*
X236633095Y-134959620D01*
X236633095Y-134959620D02*
X236680714Y-135007239D01*
X236680714Y-135007239D02*
X236728333Y-135102477D01*
X236728333Y-135102477D02*
X236728333Y-135245334D01*
X236728333Y-135245334D02*
X236680714Y-135340572D01*
X236680714Y-135340572D02*
X236633095Y-135388191D01*
X236633095Y-135388191D02*
X236537857Y-135435810D01*
X236537857Y-135435810D02*
X236156905Y-135435810D01*
X237680714Y-135912001D02*
X237109286Y-135912001D01*
X237395000Y-135912001D02*
X237395000Y-134912001D01*
X237395000Y-134912001D02*
X237299762Y-135054858D01*
X237299762Y-135054858D02*
X237204524Y-135150096D01*
X237204524Y-135150096D02*
X237109286Y-135197715D01*
X236308333Y-150412001D02*
X235975000Y-149935810D01*
X235736905Y-150412001D02*
X235736905Y-149412001D01*
X235736905Y-149412001D02*
X236117857Y-149412001D01*
X236117857Y-149412001D02*
X236213095Y-149459620D01*
X236213095Y-149459620D02*
X236260714Y-149507239D01*
X236260714Y-149507239D02*
X236308333Y-149602477D01*
X236308333Y-149602477D02*
X236308333Y-149745334D01*
X236308333Y-149745334D02*
X236260714Y-149840572D01*
X236260714Y-149840572D02*
X236213095Y-149888191D01*
X236213095Y-149888191D02*
X236117857Y-149935810D01*
X236117857Y-149935810D02*
X235736905Y-149935810D01*
X237165476Y-149745334D02*
X237165476Y-150412001D01*
X236927381Y-149364382D02*
X236689286Y-150078667D01*
X236689286Y-150078667D02*
X237308333Y-150078667D01*
X222528095Y-134647001D02*
X222528095Y-135456524D01*
X222528095Y-135456524D02*
X222575714Y-135551762D01*
X222575714Y-135551762D02*
X222623333Y-135599382D01*
X222623333Y-135599382D02*
X222718571Y-135647001D01*
X222718571Y-135647001D02*
X222909047Y-135647001D01*
X222909047Y-135647001D02*
X223004285Y-135599382D01*
X223004285Y-135599382D02*
X223051904Y-135551762D01*
X223051904Y-135551762D02*
X223099523Y-135456524D01*
X223099523Y-135456524D02*
X223099523Y-134647001D01*
X224099523Y-135647001D02*
X223528095Y-135647001D01*
X223813809Y-135647001D02*
X223813809Y-134647001D01*
X223813809Y-134647001D02*
X223718571Y-134789858D01*
X223718571Y-134789858D02*
X223623333Y-134885096D01*
X223623333Y-134885096D02*
X223528095Y-134932715D01*
X236308333Y-141412001D02*
X235975000Y-140935810D01*
X235736905Y-141412001D02*
X235736905Y-140412001D01*
X235736905Y-140412001D02*
X236117857Y-140412001D01*
X236117857Y-140412001D02*
X236213095Y-140459620D01*
X236213095Y-140459620D02*
X236260714Y-140507239D01*
X236260714Y-140507239D02*
X236308333Y-140602477D01*
X236308333Y-140602477D02*
X236308333Y-140745334D01*
X236308333Y-140745334D02*
X236260714Y-140840572D01*
X236260714Y-140840572D02*
X236213095Y-140888191D01*
X236213095Y-140888191D02*
X236117857Y-140935810D01*
X236117857Y-140935810D02*
X235736905Y-140935810D01*
X236689286Y-140507239D02*
X236736905Y-140459620D01*
X236736905Y-140459620D02*
X236832143Y-140412001D01*
X236832143Y-140412001D02*
X237070238Y-140412001D01*
X237070238Y-140412001D02*
X237165476Y-140459620D01*
X237165476Y-140459620D02*
X237213095Y-140507239D01*
X237213095Y-140507239D02*
X237260714Y-140602477D01*
X237260714Y-140602477D02*
X237260714Y-140697715D01*
X237260714Y-140697715D02*
X237213095Y-140840572D01*
X237213095Y-140840572D02*
X236641667Y-141412001D01*
X236641667Y-141412001D02*
X237260714Y-141412001D01*
X210601666Y-145962001D02*
X210601666Y-146676286D01*
X210601666Y-146676286D02*
X210554047Y-146819143D01*
X210554047Y-146819143D02*
X210458809Y-146914382D01*
X210458809Y-146914382D02*
X210315952Y-146962001D01*
X210315952Y-146962001D02*
X210220714Y-146962001D01*
X211601666Y-146962001D02*
X211030238Y-146962001D01*
X211315952Y-146962001D02*
X211315952Y-145962001D01*
X211315952Y-145962001D02*
X211220714Y-146104858D01*
X211220714Y-146104858D02*
X211125476Y-146200096D01*
X211125476Y-146200096D02*
X211030238Y-146247715D01*
%TO.C,J2*%
D12*
X210015000Y-131867182D02*
X211395000Y-131867182D01*
X210015000Y-133247182D02*
X210015000Y-131867182D01*
X210015000Y-134517182D02*
X210015000Y-137167182D01*
X210015000Y-134517182D02*
X212775000Y-134517182D01*
X210015000Y-137167182D02*
X212775000Y-137167182D01*
X212775000Y-134517182D02*
X212775000Y-137167182D01*
%TO.C,D4*%
X245780000Y-157387182D02*
X248870000Y-157387182D01*
X245780170Y-157387182D02*
G75*
G02*
X247325000Y-151837182I1544830J2560000D01*
G01*
X247325000Y-151837182D02*
G75*
G02*
X248869830Y-157387182I0J-2990000D01*
G01*
X249825000Y-154827182D02*
G75*
G02*
X244825000Y-154827182I-2500000J0D01*
G01*
X244825000Y-154827182D02*
G75*
G02*
X249825000Y-154827182I2500000J0D01*
G01*
%TO.C,D3*%
X245850000Y-150392182D02*
X248940000Y-150392182D01*
X245850170Y-150392182D02*
G75*
G02*
X247395000Y-144842182I1544830J2560000D01*
G01*
X247395000Y-144842182D02*
G75*
G02*
X248939830Y-150392182I0J-2990000D01*
G01*
X249895000Y-147832182D02*
G75*
G02*
X244895000Y-147832182I-2500000J0D01*
G01*
X244895000Y-147832182D02*
G75*
G02*
X249895000Y-147832182I2500000J0D01*
G01*
%TO.C,D2*%
X246015000Y-143387182D02*
X249105000Y-143387182D01*
X246015170Y-143387182D02*
G75*
G02*
X247560000Y-137837182I1544830J2560000D01*
G01*
X247560000Y-137837182D02*
G75*
G02*
X249104830Y-143387182I0J-2990000D01*
G01*
X250060000Y-140827182D02*
G75*
G02*
X245060000Y-140827182I-2500000J0D01*
G01*
X245060000Y-140827182D02*
G75*
G02*
X250060000Y-140827182I2500000J0D01*
G01*
%TO.C,D1*%
X245850000Y-136392182D02*
X248940000Y-136392182D01*
X245850170Y-136392182D02*
G75*
G02*
X247395000Y-130842182I1544830J2560000D01*
G01*
X247395000Y-130842182D02*
G75*
G02*
X248939830Y-136392182I0J-2990000D01*
G01*
X249895000Y-133832182D02*
G75*
G02*
X244895000Y-133832182I-2500000J0D01*
G01*
X244895000Y-133832182D02*
G75*
G02*
X249895000Y-133832182I2500000J0D01*
G01*
%TO.C,R3*%
X232855000Y-147827182D02*
X233625000Y-147827182D01*
X240935000Y-147827182D02*
X240165000Y-147827182D01*
X233625000Y-146457182D02*
X240165000Y-146457182D01*
X240165000Y-149197182D01*
X233625000Y-149197182D01*
X233625000Y-146457182D01*
%TO.C,R1*%
X232855000Y-137827182D02*
X233625000Y-137827182D01*
X240935000Y-137827182D02*
X240165000Y-137827182D01*
X233625000Y-136457182D02*
X240165000Y-136457182D01*
X240165000Y-139197182D01*
X233625000Y-139197182D01*
X233625000Y-136457182D01*
%TO.C,R4*%
X232435000Y-152327182D02*
X233205000Y-152327182D01*
X240515000Y-152327182D02*
X239745000Y-152327182D01*
X233205000Y-150957182D02*
X239745000Y-150957182D01*
X239745000Y-153697182D01*
X233205000Y-153697182D01*
X233205000Y-150957182D01*
%TO.C,U1*%
X220640000Y-136192182D02*
X220640000Y-154092182D01*
X220640000Y-154092182D02*
X225940000Y-154092182D01*
X222290000Y-136192182D02*
X220640000Y-136192182D01*
X225940000Y-136192182D02*
X224290000Y-136192182D01*
X225940000Y-154092182D02*
X225940000Y-136192182D01*
X224290000Y-136192182D02*
G75*
G02*
X222290000Y-136192182I-1000000J0D01*
G01*
%TO.C,R2*%
X232435000Y-143327182D02*
X233205000Y-143327182D01*
X240515000Y-143327182D02*
X239745000Y-143327182D01*
X233205000Y-141957182D02*
X239745000Y-141957182D01*
X239745000Y-144697182D01*
X233205000Y-144697182D01*
X233205000Y-141957182D01*
%TO.C,J1*%
X205735000Y-147507182D02*
X216135000Y-147507182D01*
X205735000Y-150527182D02*
X216135000Y-150527182D01*
X205735000Y-155427182D02*
X216135000Y-155427182D01*
X205735000Y-156927182D02*
X216135000Y-156927182D01*
X205735000Y-157547182D02*
X205735000Y-147507182D01*
X208095000Y-157547182D02*
X205735000Y-157547182D01*
X216135000Y-147507182D02*
X216135000Y-157547182D01*
X216135000Y-157547182D02*
X208695000Y-157547182D01*
X208835000Y-158157182D02*
X207955000Y-158157182D01*
X208395000Y-157547182D01*
X208835000Y-158157182D01*
G36*
X208835000Y-158157182D02*
G01*
X207955000Y-158157182D01*
X208395000Y-157547182D01*
X208835000Y-158157182D01*
G37*
%TD*%
M02*
