M48
; DRILL file KiCad 10.0.0 date 2026-09-23T00:47:35
; FORMAT={-:-/ absolute / metric / decimal}
; #@! TF.CreationDate,2026-09-23T00:47:35+05:30
; #@! TF.GenerationSoftware,Kicad,Pcbnew,10.0.0
; #@! TF.FileFunction,Plated,1,2,PTH
FMAT,2
METRIC
; #@! TA.AperFunction,Plated,PTH,ComponentDrill
T1C0.800
; #@! TA.AperFunction,Plated,PTH,ComponentDrill
T2C0.900
; #@! TA.AperFunction,Plated,PTH,ComponentDrill
T3C1.000
%
G90
G05
T1
X152.415Y-96.38
X152.415Y-98.92
X152.415Y-101.46
X152.415Y-104.0
X152.415Y-106.54
X152.415Y-109.08
X152.415Y-111.62
X160.035Y-96.38
X160.035Y-98.92
X160.035Y-101.46
X160.035Y-104.0
X160.035Y-106.54
X160.035Y-109.08
X160.035Y-111.62
X164.38Y-96.26
X164.38Y-98.8
X164.38Y-101.34
X164.38Y-103.88
X164.38Y-106.42
X164.38Y-108.96
X164.38Y-111.5
X172.0Y-96.26
X172.0Y-98.8
X172.0Y-101.34
X172.0Y-103.88
X172.0Y-106.42
X172.0Y-108.96
X172.0Y-111.5
T2
X176.46Y-102.5
X176.46Y-109.0
X179.0Y-102.5
X179.0Y-109.0
T3
X148.225Y-97.5
X148.225Y-104.0
X155.46Y-116.5
X158.0Y-116.5
X176.46Y-97.0
X179.0Y-97.0
M30
