%TF.GenerationSoftware,KiCad,Pcbnew,10.0.0*%
%TF.CreationDate,2026-04-09T18:08:38+05:30*%
%TF.ProjectId,Inverting,496e7665-7274-4696-9e67-2e6b69636164,rev?*%
%TF.SameCoordinates,Original*%
%TF.FileFunction,Copper,L1,Top*%
%TF.FilePolarity,Positive*%
%FSLAX46Y46*%
G04 Gerber Fmt 4.6, Leading zero omitted, Abs format (unit mm)*
G04 Created by KiCad (PCBNEW 10.0.0) date 2026-04-09 18:08:38*
%MOMM*%
%LPD*%
G01*
G04 APERTURE LIST*
G04 Aperture macros list*
%AMRoundRect*
0 Rectangle with rounded corners*
0 $1 Rounding radius*
0 $2 $3 $4 $5 $6 $7 $8 $9 X,Y pos of 4 corners*
0 Add a 4 corners polygon primitive as box body*
4,1,4,$2,$3,$4,$5,$6,$7,$8,$9,$2,$3,0*
0 Add four circle primitives for the rounded corners*
1,1,$1+$1,$2,$3*
1,1,$1+$1,$4,$5*
1,1,$1+$1,$6,$7*
1,1,$1+$1,$8,$9*
0 Add four rect primitives between the rounded corners*
20,1,$1+$1,$2,$3,$4,$5,0*
20,1,$1+$1,$4,$5,$6,$7,0*
20,1,$1+$1,$6,$7,$8,$9,0*
20,1,$1+$1,$8,$9,$2,$3,0*%
G04 Aperture macros list end*
%ADD10C,0.300000*%
%TA.AperFunction,NonConductor*%
%ADD11C,0.300000*%
%TD*%
%ADD12C,0.150000*%
%TA.AperFunction,NonConductor*%
%ADD13C,0.150000*%
%TD*%
%TA.AperFunction,ComponentPad*%
%ADD14R,2.800000X2.800000*%
%TD*%
%TA.AperFunction,ComponentPad*%
%ADD15C,2.800000*%
%TD*%
%TA.AperFunction,ComponentPad*%
%ADD16C,1.600000*%
%TD*%
%TA.AperFunction,SMDPad,CuDef*%
%ADD17RoundRect,0.150000X-0.825000X-0.150000X0.825000X-0.150000X0.825000X0.150000X-0.825000X0.150000X0*%
%TD*%
%TA.AperFunction,Conductor*%
%ADD18C,0.200000*%
%TD*%
G04 APERTURE END LIST*
D10*
D11*
X219554510Y-156729400D02*
X220697368Y-156729400D01*
X220125939Y-157300828D02*
X220125939Y-156157971D01*
X222197368Y-157300828D02*
X221340225Y-157300828D01*
X221768796Y-157300828D02*
X221768796Y-155800828D01*
X221768796Y-155800828D02*
X221625939Y-156015114D01*
X221625939Y-156015114D02*
X221483082Y-156157971D01*
X221483082Y-156157971D02*
X221340225Y-156229400D01*
X222768796Y-155943685D02*
X222840224Y-155872257D01*
X222840224Y-155872257D02*
X222983082Y-155800828D01*
X222983082Y-155800828D02*
X223340224Y-155800828D01*
X223340224Y-155800828D02*
X223483082Y-155872257D01*
X223483082Y-155872257D02*
X223554510Y-155943685D01*
X223554510Y-155943685D02*
X223625939Y-156086542D01*
X223625939Y-156086542D02*
X223625939Y-156229400D01*
X223625939Y-156229400D02*
X223554510Y-156443685D01*
X223554510Y-156443685D02*
X222697367Y-157300828D01*
X222697367Y-157300828D02*
X223625939Y-157300828D01*
X224054510Y-155800828D02*
X224554510Y-157300828D01*
X224554510Y-157300828D02*
X225054510Y-155800828D01*
D10*
D11*
X208554510Y-156729400D02*
X209697368Y-156729400D01*
X211197368Y-157300828D02*
X210340225Y-157300828D01*
X210768796Y-157300828D02*
X210768796Y-155800828D01*
X210768796Y-155800828D02*
X210625939Y-156015114D01*
X210625939Y-156015114D02*
X210483082Y-156157971D01*
X210483082Y-156157971D02*
X210340225Y-156229400D01*
X211768796Y-155943685D02*
X211840224Y-155872257D01*
X211840224Y-155872257D02*
X211983082Y-155800828D01*
X211983082Y-155800828D02*
X212340224Y-155800828D01*
X212340224Y-155800828D02*
X212483082Y-155872257D01*
X212483082Y-155872257D02*
X212554510Y-155943685D01*
X212554510Y-155943685D02*
X212625939Y-156086542D01*
X212625939Y-156086542D02*
X212625939Y-156229400D01*
X212625939Y-156229400D02*
X212554510Y-156443685D01*
X212554510Y-156443685D02*
X211697367Y-157300828D01*
X211697367Y-157300828D02*
X212625939Y-157300828D01*
X213054510Y-155800828D02*
X213554510Y-157300828D01*
X213554510Y-157300828D02*
X214054510Y-155800828D01*
D12*
D13*
X205336779Y-135369819D02*
X205336779Y-134369819D01*
X205812969Y-135369819D02*
X205812969Y-134369819D01*
X205812969Y-134369819D02*
X206384397Y-135369819D01*
X206384397Y-135369819D02*
X206384397Y-134369819D01*
X206860588Y-135369819D02*
X206860588Y-134369819D01*
X206860588Y-134369819D02*
X207241540Y-134369819D01*
X207241540Y-134369819D02*
X207336778Y-134417438D01*
X207336778Y-134417438D02*
X207384397Y-134465057D01*
X207384397Y-134465057D02*
X207432016Y-134560295D01*
X207432016Y-134560295D02*
X207432016Y-134703152D01*
X207432016Y-134703152D02*
X207384397Y-134798390D01*
X207384397Y-134798390D02*
X207336778Y-134846009D01*
X207336778Y-134846009D02*
X207241540Y-134893628D01*
X207241540Y-134893628D02*
X206860588Y-134893628D01*
X207860588Y-134369819D02*
X207860588Y-135179342D01*
X207860588Y-135179342D02*
X207908207Y-135274580D01*
X207908207Y-135274580D02*
X207955826Y-135322200D01*
X207955826Y-135322200D02*
X208051064Y-135369819D01*
X208051064Y-135369819D02*
X208241540Y-135369819D01*
X208241540Y-135369819D02*
X208336778Y-135322200D01*
X208336778Y-135322200D02*
X208384397Y-135274580D01*
X208384397Y-135274580D02*
X208432016Y-135179342D01*
X208432016Y-135179342D02*
X208432016Y-134369819D01*
X208765350Y-134369819D02*
X209336778Y-134369819D01*
X209051064Y-135369819D02*
X209051064Y-134369819D01*
D14*
%TO.P,J3,1,Pin_1_1*%
%TO.N,-12V*%
X211920000Y-152000000D03*
D15*
%TO.P,J3,2,Pin_2_2*%
%TO.N,GND*%
X217000000Y-152000000D03*
%TO.P,J3,3,Pin_3_3*%
%TO.N,+12V*%
X222080000Y-152000000D03*
%TD*%
D16*
%TO.P,R1,1*%
%TO.N,Net-(U1--)*%
X224920000Y-138000000D03*
%TO.P,R1,2*%
%TO.N,Net-(J2-Pin_2)*%
X235080000Y-138000000D03*
%TD*%
D14*
%TO.P,J2,1,Pin_1_1*%
%TO.N,GND*%
X227955000Y-144500000D03*
D15*
%TO.P,J2,2,Pin_2_2*%
%TO.N,Net-(J2-Pin_2)*%
X233035000Y-144500000D03*
%TD*%
D16*
%TO.P,R2,1*%
%TO.N,Net-(J1-Pin_1)*%
X211920000Y-138000000D03*
%TO.P,R2,2*%
%TO.N,Net-(U1--)*%
X222080000Y-138000000D03*
%TD*%
D17*
%TO.P,U1,1,LOGIC_REFERENCE_1*%
%TO.N,unconnected-(U1-LOGIC_REFERENCE-Pad1)*%
X214525000Y-141095000D03*
%TO.P,U1,2,-_2*%
%TO.N,Net-(U1--)*%
X214525000Y-142365000D03*
%TO.P,U1,3,+_3*%
%TO.N,GND*%
X214525000Y-143635000D03*
%TO.P,U1,4,V-_4*%
%TO.N,-12V*%
X214525000Y-144905000D03*
%TO.P,U1,5,C_{COMP}_5*%
%TO.N,unconnected-(U1-C_{COMP}-Pad5)*%
X219475000Y-144905000D03*
%TO.P,U1,6*%
%TO.N,Net-(J2-Pin_2)*%
X219475000Y-143635000D03*
%TO.P,U1,7,V+_7*%
%TO.N,+12V*%
X219475000Y-142365000D03*
%TO.P,U1,8,~{DISABLE}_8*%
%TO.N,unconnected-(U1-~{DISABLE}-Pad8)*%
X219475000Y-141095000D03*
%TD*%
D14*
%TO.P,J1,1,Pin_1_1*%
%TO.N,Net-(J1-Pin_1)*%
X207000000Y-139455000D03*
D15*
%TO.P,J1,2,Pin_2_2*%
%TO.N,GND*%
X207000000Y-144535000D03*
%TD*%
%TO.N,+12V*%
D18*
X218500001Y-142365000D02*
X219475000Y-142365000D01*
X218200000Y-142665001D02*
X218500001Y-142365000D01*
X218200000Y-148120000D02*
X218200000Y-142665001D01*
X222080000Y-152000000D02*
X218200000Y-148120000D01*
%TO.N,GND*%
X207900000Y-143635000D02*
X214525000Y-143635000D01*
X207000000Y-144535000D02*
X207900000Y-143635000D01*
%TO.N,-12V*%
X211920000Y-152000000D02*
X211920000Y-147510000D01*
X211920000Y-147510000D02*
X214525000Y-144905000D01*
%TO.N,Net-(J1-Pin_1)*%
X210465000Y-139455000D02*
X211920000Y-138000000D01*
X207000000Y-139455000D02*
X210465000Y-139455000D01*
%TO.N,GND*%
X227955000Y-144500000D02*
X227760000Y-144305000D01*
%TO.N,Net-(J2-Pin_2)*%
X235080000Y-142455000D02*
X233035000Y-144500000D01*
X220449999Y-143635000D02*
X219475000Y-143635000D01*
X221284999Y-142800000D02*
X220449999Y-143635000D01*
X233035000Y-144500000D02*
X231335000Y-142800000D01*
X231335000Y-142800000D02*
X221284999Y-142800000D01*
X235080000Y-138000000D02*
X235080000Y-142455000D01*
%TO.N,Net-(U1--)*%
X220500000Y-138000000D02*
X216135000Y-142365000D01*
X222080000Y-138000000D02*
X220500000Y-138000000D01*
X216135000Y-142365000D02*
X214525000Y-142365000D01*
X222080000Y-138000000D02*
X224920000Y-138000000D01*
%TD*%
M02*
