%TF.GenerationSoftware,KiCad,Pcbnew,10.0.0*%
%TF.CreationDate,2026-04-09T18:23:17+05:30*%
%TF.ProjectId,Non Inverting,4e6f6e20-496e-4766-9572-74696e672e6b,rev?*%
%TF.SameCoordinates,Original*%
%TF.FileFunction,Copper,L1,Top*%
%TF.FilePolarity,Positive*%
%FSLAX46Y46*%
G04 Gerber Fmt 4.6, Leading zero omitted, Abs format (unit mm)*
G04 Created by KiCad (PCBNEW 10.0.0) date 2026-04-09 18:23:17*
%MOMM*%
%LPD*%
G01*
G04 APERTURE LIST*
G04 Aperture macros list*
%AMRoundRect*
0 Rectangle with rounded corners*
0 $1 Rounding radius*
0 $2 $3 $4 $5 $6 $7 $8 $9 X,Y pos of 4 corners*
0 Add a 4 corners polygon primitive as box body*
4,1,4,$2,$3,$4,$5,$6,$7,$8,$9,$2,$3,0*
0 Add four circle primitives for the rounded corners*
1,1,$1+$1,$2,$3*
1,1,$1+$1,$4,$5*
1,1,$1+$1,$6,$7*
1,1,$1+$1,$8,$9*
0 Add four rect primitives between the rounded corners*
20,1,$1+$1,$2,$3,$4,$5,0*
20,1,$1+$1,$4,$5,$6,$7,0*
20,1,$1+$1,$6,$7,$8,$9,0*
20,1,$1+$1,$8,$9,$2,$3,0*%
G04 Aperture macros list end*
%ADD10C,0.300000*%
%TA.AperFunction,NonConductor*%
%ADD11C,0.300000*%
%TD*%
%TA.AperFunction,ComponentPad*%
%ADD12R,2.800000X2.800000*%
%TD*%
%TA.AperFunction,ComponentPad*%
%ADD13C,2.800000*%
%TD*%
%TA.AperFunction,ComponentPad*%
%ADD14C,1.600000*%
%TD*%
%TA.AperFunction,ComponentPad*%
%ADD15RoundRect,0.250000X-0.550000X-0.550000X0.550000X-0.550000X0.550000X0.550000X-0.550000X0.550000X0*%
%TD*%
%TA.AperFunction,Conductor*%
%ADD16C,0.200000*%
%TD*%
G04 APERTURE END LIST*
D10*
D11*
X231554510Y-133229400D02*
X232697368Y-133229400D01*
X232125939Y-133800828D02*
X232125939Y-132657971D01*
X234197368Y-133800828D02*
X233340225Y-133800828D01*
X233768796Y-133800828D02*
X233768796Y-132300828D01*
X233768796Y-132300828D02*
X233625939Y-132515114D01*
X233625939Y-132515114D02*
X233483082Y-132657971D01*
X233483082Y-132657971D02*
X233340225Y-132729400D01*
X234768796Y-132443685D02*
X234840224Y-132372257D01*
X234840224Y-132372257D02*
X234983082Y-132300828D01*
X234983082Y-132300828D02*
X235340224Y-132300828D01*
X235340224Y-132300828D02*
X235483082Y-132372257D01*
X235483082Y-132372257D02*
X235554510Y-132443685D01*
X235554510Y-132443685D02*
X235625939Y-132586542D01*
X235625939Y-132586542D02*
X235625939Y-132729400D01*
X235625939Y-132729400D02*
X235554510Y-132943685D01*
X235554510Y-132943685D02*
X234697367Y-133800828D01*
X234697367Y-133800828D02*
X235625939Y-133800828D01*
X236054510Y-132300828D02*
X236554510Y-133800828D01*
X236554510Y-133800828D02*
X237054510Y-132300828D01*
D10*
D11*
X221054510Y-133229400D02*
X222197368Y-133229400D01*
X223697368Y-133800828D02*
X222840225Y-133800828D01*
X223268796Y-133800828D02*
X223268796Y-132300828D01*
X223268796Y-132300828D02*
X223125939Y-132515114D01*
X223125939Y-132515114D02*
X222983082Y-132657971D01*
X222983082Y-132657971D02*
X222840225Y-132729400D01*
X224268796Y-132443685D02*
X224340224Y-132372257D01*
X224340224Y-132372257D02*
X224483082Y-132300828D01*
X224483082Y-132300828D02*
X224840224Y-132300828D01*
X224840224Y-132300828D02*
X224983082Y-132372257D01*
X224983082Y-132372257D02*
X225054510Y-132443685D01*
X225054510Y-132443685D02*
X225125939Y-132586542D01*
X225125939Y-132586542D02*
X225125939Y-132729400D01*
X225125939Y-132729400D02*
X225054510Y-132943685D01*
X225054510Y-132943685D02*
X224197367Y-133800828D01*
X224197367Y-133800828D02*
X225125939Y-133800828D01*
X225554510Y-132300828D02*
X226054510Y-133800828D01*
X226054510Y-133800828D02*
X226554510Y-132300828D01*
D10*
D11*
X213554510Y-138800828D02*
X213554510Y-137300828D01*
X214268796Y-138800828D02*
X214268796Y-137300828D01*
X214268796Y-137300828D02*
X215125939Y-138800828D01*
X215125939Y-138800828D02*
X215125939Y-137300828D01*
X215840225Y-138800828D02*
X215840225Y-137300828D01*
X215840225Y-137300828D02*
X216411654Y-137300828D01*
X216411654Y-137300828D02*
X216554511Y-137372257D01*
X216554511Y-137372257D02*
X216625940Y-137443685D01*
X216625940Y-137443685D02*
X216697368Y-137586542D01*
X216697368Y-137586542D02*
X216697368Y-137800828D01*
X216697368Y-137800828D02*
X216625940Y-137943685D01*
X216625940Y-137943685D02*
X216554511Y-138015114D01*
X216554511Y-138015114D02*
X216411654Y-138086542D01*
X216411654Y-138086542D02*
X215840225Y-138086542D01*
X217340225Y-137300828D02*
X217340225Y-138515114D01*
X217340225Y-138515114D02*
X217411654Y-138657971D01*
X217411654Y-138657971D02*
X217483083Y-138729400D01*
X217483083Y-138729400D02*
X217625940Y-138800828D01*
X217625940Y-138800828D02*
X217911654Y-138800828D01*
X217911654Y-138800828D02*
X218054511Y-138729400D01*
X218054511Y-138729400D02*
X218125940Y-138657971D01*
X218125940Y-138657971D02*
X218197368Y-138515114D01*
X218197368Y-138515114D02*
X218197368Y-137300828D01*
X218697369Y-137300828D02*
X219554512Y-137300828D01*
X219125940Y-138800828D02*
X219125940Y-137300828D01*
D10*
D11*
X243699171Y-144840225D02*
X243699171Y-145125939D01*
X243699171Y-145125939D02*
X243627742Y-145268796D01*
X243627742Y-145268796D02*
X243484885Y-145411653D01*
X243484885Y-145411653D02*
X243199171Y-145483082D01*
X243199171Y-145483082D02*
X242699171Y-145483082D01*
X242699171Y-145483082D02*
X242413457Y-145411653D01*
X242413457Y-145411653D02*
X242270600Y-145268796D01*
X242270600Y-145268796D02*
X242199171Y-145125939D01*
X242199171Y-145125939D02*
X242199171Y-144840225D01*
X242199171Y-144840225D02*
X242270600Y-144697368D01*
X242270600Y-144697368D02*
X242413457Y-144554510D01*
X242413457Y-144554510D02*
X242699171Y-144483082D01*
X242699171Y-144483082D02*
X243199171Y-144483082D01*
X243199171Y-144483082D02*
X243484885Y-144554510D01*
X243484885Y-144554510D02*
X243627742Y-144697368D01*
X243627742Y-144697368D02*
X243699171Y-144840225D01*
X243699171Y-146125939D02*
X242484885Y-146125939D01*
X242484885Y-146125939D02*
X242342028Y-146197368D01*
X242342028Y-146197368D02*
X242270600Y-146268797D01*
X242270600Y-146268797D02*
X242199171Y-146411654D01*
X242199171Y-146411654D02*
X242199171Y-146697368D01*
X242199171Y-146697368D02*
X242270600Y-146840225D01*
X242270600Y-146840225D02*
X242342028Y-146911654D01*
X242342028Y-146911654D02*
X242484885Y-146983082D01*
X242484885Y-146983082D02*
X243699171Y-146983082D01*
X243699171Y-147483083D02*
X243699171Y-148340226D01*
X242199171Y-147911654D02*
X243699171Y-147911654D01*
X242199171Y-148840225D02*
X243699171Y-148840225D01*
X243699171Y-148840225D02*
X243699171Y-149411654D01*
X243699171Y-149411654D02*
X243627742Y-149554511D01*
X243627742Y-149554511D02*
X243556314Y-149625940D01*
X243556314Y-149625940D02*
X243413457Y-149697368D01*
X243413457Y-149697368D02*
X243199171Y-149697368D01*
X243199171Y-149697368D02*
X243056314Y-149625940D01*
X243056314Y-149625940D02*
X242984885Y-149554511D01*
X242984885Y-149554511D02*
X242913457Y-149411654D01*
X242913457Y-149411654D02*
X242913457Y-148840225D01*
X243699171Y-150340225D02*
X242484885Y-150340225D01*
X242484885Y-150340225D02*
X242342028Y-150411654D01*
X242342028Y-150411654D02*
X242270600Y-150483083D01*
X242270600Y-150483083D02*
X242199171Y-150625940D01*
X242199171Y-150625940D02*
X242199171Y-150911654D01*
X242199171Y-150911654D02*
X242270600Y-151054511D01*
X242270600Y-151054511D02*
X242342028Y-151125940D01*
X242342028Y-151125940D02*
X242484885Y-151197368D01*
X242484885Y-151197368D02*
X243699171Y-151197368D01*
X243699171Y-151697369D02*
X243699171Y-152554512D01*
X242199171Y-152125940D02*
X243699171Y-152125940D01*
D12*
%TO.P,J3,1,Pin_1_1*%
%TO.N,-12V*%
X223565000Y-138295000D03*
D13*
%TO.P,J3,2,Pin_2_2*%
%TO.N,GND*%
X228645000Y-138295000D03*
%TO.P,J3,3,Pin_3_3*%
%TO.N,+12V*%
X233725000Y-138295000D03*
%TD*%
D14*
%TO.P,R2,1*%
%TO.N,Net-(U1--)*%
X224920000Y-158000000D03*
%TO.P,R2,2*%
%TO.N,Net-(J2-Pin_2)*%
X235080000Y-158000000D03*
%TD*%
D12*
%TO.P,J2,1,Pin_1_1*%
%TO.N,GND*%
X237000000Y-145420000D03*
D13*
%TO.P,J2,2,Pin_2_2*%
%TO.N,Net-(J2-Pin_2)*%
X237000000Y-150500000D03*
%TD*%
D14*
%TO.P,R1,1*%
%TO.N,GND*%
X211420000Y-152500000D03*
%TO.P,R1,2*%
%TO.N,Net-(U1--)*%
X221580000Y-152500000D03*
%TD*%
D15*
%TO.P,U1,1,NULL_1*%
%TO.N,unconnected-(U1-NULL-Pad1)*%
X223895000Y-144765000D03*
D14*
%TO.P,U1,2,-_2*%
%TO.N,Net-(U1--)*%
X223895000Y-147305000D03*
%TO.P,U1,3,+_3*%
%TO.N,Net-(J1-Pin_1)*%
X223895000Y-149845000D03*
%TO.P,U1,4,V-_4*%
%TO.N,-12V*%
X223895000Y-152385000D03*
%TO.P,U1,5,NULL_5*%
%TO.N,unconnected-(U1-NULL-Pad5)*%
X231515000Y-152385000D03*
%TO.P,U1,6*%
%TO.N,Net-(J2-Pin_2)*%
X231515000Y-149845000D03*
%TO.P,U1,7,V+_7*%
%TO.N,+12V*%
X231515000Y-147305000D03*
%TO.P,U1,8,Subst._8*%
%TO.N,unconnected-(U1-Subst.-Pad8)*%
X231515000Y-144765000D03*
%TD*%
D12*
%TO.P,J1,1,Pin_1_1*%
%TO.N,Net-(J1-Pin_1)*%
X216500000Y-147500000D03*
D13*
%TO.P,J1,2,Pin_2_2*%
%TO.N,GND*%
X216500000Y-142420000D03*
%TD*%
%TO.N,-12V*%
D16*
X225395000Y-150885000D02*
X223895000Y-152385000D01*
X223565000Y-138295000D02*
X225395000Y-140125000D01*
X225395000Y-140125000D02*
X225395000Y-150885000D01*
%TO.N,Net-(J1-Pin_1)*%
X218000000Y-146000000D02*
X216500000Y-147500000D01*
X224995000Y-146849365D02*
X224145635Y-146000000D01*
X224995000Y-148745000D02*
X224995000Y-146849365D01*
X223895000Y-149845000D02*
X224995000Y-148745000D01*
X224145635Y-146000000D02*
X218000000Y-146000000D01*
%TO.N,+12V*%
X233725000Y-145095000D02*
X233725000Y-138295000D01*
X231515000Y-147305000D02*
X233725000Y-145095000D01*
%TO.N,Net-(J2-Pin_2)*%
X231515000Y-149845000D02*
X236345000Y-149845000D01*
X235080000Y-158000000D02*
X235080000Y-152420000D01*
X235080000Y-152420000D02*
X237000000Y-150500000D01*
X236345000Y-149845000D02*
X237000000Y-150500000D01*
%TO.N,Net-(U1--)*%
X221580000Y-152500000D02*
X221580000Y-149620000D01*
X224920000Y-155840000D02*
X221580000Y-152500000D01*
X221580000Y-149620000D02*
X223895000Y-147305000D01*
X224920000Y-158000000D02*
X224920000Y-155840000D01*
%TD*%
M02*
