%TF.GenerationSoftware,KiCad,Pcbnew,10.0.0*%
%TF.CreationDate,2026-04-09T18:23:17+05:30*%
%TF.ProjectId,Non Inverting,4e6f6e20-496e-4766-9572-74696e672e6b,rev?*%
%TF.SameCoordinates,Original*%
%TF.FileFunction,Legend,Top*%
%TF.FilePolarity,Positive*%
%FSLAX46Y46*%
G04 Gerber Fmt 4.6, Leading zero omitted, Abs format (unit mm)*
G04 Created by KiCad (PCBNEW 10.0.0) date 2026-04-09 18:23:17*
%MOMM*%
%LPD*%
G01*
G04 APERTURE LIST*
%ADD10C,0.150000*%
%ADD11C,0.120000*%
G04 APERTURE END LIST*
D10*
X219369819Y-138628333D02*
X220084104Y-138628333D01*
X220084104Y-138628333D02*
X220226961Y-138675952D01*
X220226961Y-138675952D02*
X220322200Y-138771190D01*
X220322200Y-138771190D02*
X220369819Y-138914047D01*
X220369819Y-138914047D02*
X220369819Y-139009285D01*
X219369819Y-138247380D02*
X219369819Y-137628333D01*
X219369819Y-137628333D02*
X219750771Y-137961666D01*
X219750771Y-137961666D02*
X219750771Y-137818809D01*
X219750771Y-137818809D02*
X219798390Y-137723571D01*
X219798390Y-137723571D02*
X219846009Y-137675952D01*
X219846009Y-137675952D02*
X219941247Y-137628333D01*
X219941247Y-137628333D02*
X220179342Y-137628333D01*
X220179342Y-137628333D02*
X220274580Y-137675952D01*
X220274580Y-137675952D02*
X220322200Y-137723571D01*
X220322200Y-137723571D02*
X220369819Y-137818809D01*
X220369819Y-137818809D02*
X220369819Y-138104523D01*
X220369819Y-138104523D02*
X220322200Y-138199761D01*
X220322200Y-138199761D02*
X220274580Y-138247380D01*
X229833333Y-156084819D02*
X229500000Y-155608628D01*
X229261905Y-156084819D02*
X229261905Y-155084819D01*
X229261905Y-155084819D02*
X229642857Y-155084819D01*
X229642857Y-155084819D02*
X229738095Y-155132438D01*
X229738095Y-155132438D02*
X229785714Y-155180057D01*
X229785714Y-155180057D02*
X229833333Y-155275295D01*
X229833333Y-155275295D02*
X229833333Y-155418152D01*
X229833333Y-155418152D02*
X229785714Y-155513390D01*
X229785714Y-155513390D02*
X229738095Y-155561009D01*
X229738095Y-155561009D02*
X229642857Y-155608628D01*
X229642857Y-155608628D02*
X229261905Y-155608628D01*
X230214286Y-155180057D02*
X230261905Y-155132438D01*
X230261905Y-155132438D02*
X230357143Y-155084819D01*
X230357143Y-155084819D02*
X230595238Y-155084819D01*
X230595238Y-155084819D02*
X230690476Y-155132438D01*
X230690476Y-155132438D02*
X230738095Y-155180057D01*
X230738095Y-155180057D02*
X230785714Y-155275295D01*
X230785714Y-155275295D02*
X230785714Y-155370533D01*
X230785714Y-155370533D02*
X230738095Y-155513390D01*
X230738095Y-155513390D02*
X230166667Y-156084819D01*
X230166667Y-156084819D02*
X230785714Y-156084819D01*
X236666666Y-141224819D02*
X236666666Y-141939104D01*
X236666666Y-141939104D02*
X236619047Y-142081961D01*
X236619047Y-142081961D02*
X236523809Y-142177200D01*
X236523809Y-142177200D02*
X236380952Y-142224819D01*
X236380952Y-142224819D02*
X236285714Y-142224819D01*
X237095238Y-141320057D02*
X237142857Y-141272438D01*
X237142857Y-141272438D02*
X237238095Y-141224819D01*
X237238095Y-141224819D02*
X237476190Y-141224819D01*
X237476190Y-141224819D02*
X237571428Y-141272438D01*
X237571428Y-141272438D02*
X237619047Y-141320057D01*
X237619047Y-141320057D02*
X237666666Y-141415295D01*
X237666666Y-141415295D02*
X237666666Y-141510533D01*
X237666666Y-141510533D02*
X237619047Y-141653390D01*
X237619047Y-141653390D02*
X237047619Y-142224819D01*
X237047619Y-142224819D02*
X237666666Y-142224819D01*
X226943095Y-141889819D02*
X226943095Y-142699342D01*
X226943095Y-142699342D02*
X226990714Y-142794580D01*
X226990714Y-142794580D02*
X227038333Y-142842200D01*
X227038333Y-142842200D02*
X227133571Y-142889819D01*
X227133571Y-142889819D02*
X227324047Y-142889819D01*
X227324047Y-142889819D02*
X227419285Y-142842200D01*
X227419285Y-142842200D02*
X227466904Y-142794580D01*
X227466904Y-142794580D02*
X227514523Y-142699342D01*
X227514523Y-142699342D02*
X227514523Y-141889819D01*
X228514523Y-142889819D02*
X227943095Y-142889819D01*
X228228809Y-142889819D02*
X228228809Y-141889819D01*
X228228809Y-141889819D02*
X228133571Y-142032676D01*
X228133571Y-142032676D02*
X228038333Y-142127914D01*
X228038333Y-142127914D02*
X227943095Y-142175533D01*
%TO.C,J3*%
D11*
X220915000Y-141580000D02*
X220915000Y-138295000D01*
X223565000Y-141580000D02*
X220915000Y-141580000D01*
X226105000Y-141580000D02*
X236375000Y-141580000D01*
X226105000Y-141580000D02*
X226105000Y-135010000D01*
X236375000Y-141580000D02*
X236375000Y-135010000D01*
X226105000Y-135010000D02*
X236375000Y-135010000D01*
%TO.C,R2*%
X225960000Y-158000000D02*
X226730000Y-158000000D01*
X234040000Y-158000000D02*
X233270000Y-158000000D01*
X226730000Y-156630000D02*
X233270000Y-156630000D01*
X233270000Y-159370000D01*
X226730000Y-159370000D01*
X226730000Y-156630000D01*
%TO.C,J2*%
X233715000Y-142770000D02*
X237000000Y-142770000D01*
X233715000Y-145420000D02*
X233715000Y-142770000D01*
X233715000Y-147960000D02*
X233715000Y-153150000D01*
X233715000Y-147960000D02*
X240285000Y-147960000D01*
X233715000Y-153150000D02*
X240285000Y-153150000D01*
X240285000Y-147960000D02*
X240285000Y-153150000D01*
%TO.C,R1*%
X212460000Y-152500000D02*
X213230000Y-152500000D01*
X220540000Y-152500000D02*
X219770000Y-152500000D01*
X213230000Y-151130000D02*
X219770000Y-151130000D01*
X219770000Y-153870000D01*
X213230000Y-153870000D01*
X213230000Y-151130000D01*
%TO.C,U1*%
X225055000Y-143435000D02*
X225055000Y-153715000D01*
X225055000Y-153715000D02*
X230355000Y-153715000D01*
X226705000Y-143435000D02*
X225055000Y-143435000D01*
X230355000Y-143435000D02*
X228705000Y-143435000D01*
X230355000Y-153715000D02*
X230355000Y-143435000D01*
X228705000Y-143435000D02*
G75*
G02*
X226705000Y-143435000I-1000000J0D01*
G01*
%TO.C,J1*%
X213215000Y-144960000D02*
X213215000Y-139770000D01*
X219785000Y-139770000D02*
X213215000Y-139770000D01*
X219785000Y-144960000D02*
X213215000Y-144960000D01*
X219785000Y-144960000D02*
X219785000Y-139770000D01*
X219785000Y-147500000D02*
X219785000Y-150150000D01*
X219785000Y-150150000D02*
X216500000Y-150150000D01*
%TD*%
M02*
